<svg width="40" height="40" viewBox="0 0 40 40" fill="none" xmlns="http://www.w3.org/2000/svg">
<path d="M14.8 14.4775C14.4552 14.4775 14.1246 14.6145 13.8808 14.8583C13.637 15.1021 13.5 15.4328 13.5 15.7775C13.5 16.1223 13.637 16.453 13.8808 16.6968C14.1246 16.9406 14.4552 17.0775 14.8 17.0775H25.2C25.5448 17.0775 25.8754 16.9406 26.1192 16.6968C26.363 16.453 26.5 16.1223 26.5 15.7775C26.5 15.4328 26.363 15.1021 26.1192 14.8583C25.8754 14.6145 25.5448 14.4775 25.2 14.4775H14.8Z" fill="white"/>
<path d="M13.5 21.0002C13.5 20.6554 13.637 20.3248 13.8808 20.081C14.1246 19.8372 14.4552 19.7002 14.8 19.7002H25.2C25.5448 19.7002 25.8754 19.8372 26.1192 20.081C26.363 20.3248 26.5 20.6554 26.5 21.0002C26.5 21.345 26.363 21.6756 26.1192 21.9194C25.8754 22.1632 25.5448 22.3002 25.2 22.3002H14.8C14.4552 22.3002 14.1246 22.1632 13.8808 21.9194C13.637 21.6756 13.5 21.345 13.5 21.0002Z" fill="white"/>
<path d="M14.8 24.9224C14.4552 24.9224 14.1246 25.0593 13.8808 25.3031C13.637 25.5469 13.5 25.8776 13.5 26.2224C13.5 26.5671 13.637 26.8978 13.8808 27.1416C14.1246 27.3854 14.4552 27.5224 14.8 27.5224H25.2C25.5448 27.5224 25.8754 27.3854 26.1192 27.1416C26.363 26.8978 26.5 26.5671 26.5 26.2224C26.5 25.8776 26.363 25.5469 26.1192 25.3031C25.8754 25.0593 25.5448 24.9224 25.2 24.9224H14.8Z" fill="white"/>
<path fill-rule="evenodd" clip-rule="evenodd" d="M33 21C33 28.1799 27.1799 34 20 34C12.8201 34 7 28.1799 7 21C7 13.8201 12.8201 8 20 8C27.1799 8 33 13.8201 33 21ZM30.4 21C30.4 23.7583 29.3043 26.4035 27.3539 28.3539C25.4035 30.3043 22.7583 31.4 20 31.4C17.2417 31.4 14.5965 30.3043 12.6461 28.3539C10.6957 26.4035 9.6 23.7583 9.6 21C9.6 18.2417 10.6957 15.5965 12.6461 13.6461C14.5965 11.6957 17.2417 10.6 20 10.6C22.7583 10.6 25.4035 11.6957 27.3539 13.6461C29.3043 15.5965 30.4 18.2417 30.4 21Z" fill="white"/>
</svg>
