<svg width="16" height="13" viewBox="0 0 16 13" fill="none" xmlns="http://www.w3.org/2000/svg">
<g clip-path="url(#clip0_1661_171)">
<path d="M15.9849 11.0094C15.7755 10.4922 15.1911 10.2446 14.6819 10.4605L14.1289 10.6953L13.1601 8.1283C14.3569 7.26248 14.7819 5.58416 14.0226 4.25115L11.8571 0.42986C11.6571 0.0776917 11.2546 -0.0716052 10.8796 0.0840394L8.02461 1.28679L5.14486 0.0613401C4.76986 -0.0941774 4.34486 0.0549925 4.14486 0.407287L1.97861 4.22756C1.22236 5.56057 1.64436 7.21858 2.83986 8.10471L1.87111 10.692L1.31936 10.4584C0.810111 10.2426 0.228861 10.4902 0.0163606 11.0074C-0.0273894 11.1121 0.0194856 11.2295 0.122611 11.274L4.18261 12.9845C4.26011 13.029 4.39821 12.9814 4.44186 12.8766C4.65121 12.3594 4.41061 11.7628 3.90136 11.5469L3.34836 11.3153L4.33261 8.68481C4.44511 8.6975 4.55446 8.71655 4.66061 8.71655C5.95436 8.71655 7.14486 7.90151 7.49561 6.55225L8.00186 4.63881L8.50811 6.55225C8.83561 7.87866 10.0486 8.71655 11.3431 8.71655C11.4494 8.71655 11.5587 8.6975 11.6711 8.68481L12.6524 11.3153L12.0994 11.5469C11.5901 11.7627 11.3464 12.3366 11.5589 12.8766C11.6026 12.9814 11.7214 13.029 11.8214 12.9845L15.8814 11.274C15.9774 11.2278 16.0274 11.1135 15.9849 11.0094ZM6.89736 4.11584L4.09486 2.93518L5.00736 1.32617L7.36986 2.32072L6.89736 4.11584ZM9.10236 4.11584L8.63061 2.31971L10.9929 1.32643L11.9054 2.93543L9.10236 4.11584Z" fill="#F476FF"/>
</g>
<defs>
<clipPath id="clip0_1661_171">
<rect width="16" height="13" fill="white"/>
</clipPath>
</defs>
</svg>
