<?xml version="1.0" encoding="UTF-8"?>
<!-- Generator: CustomSymbols v2.5.2.37 by @serious_bret https://bretlester.com/app_content/CustomSymbols/ -->
<!-- Guides: Left/Right 0.0/0.0 Cap/Base -0.003/0.003 -->
<!-- Settings: RefScale 1.0 Min/Max Stroke Scales 0.5/2.21 -->
<!DOCTYPE svg
PUBLIC "-//W3C//DTD SVG 1.1//EN"
       "http://www.w3.org/Graphics/SVG/1.1/DTD/svg11.dtd">
<svg version="1.1" xmlns="http://www.w3.org/2000/svg" xmlns:xlink="http://www.w3.org/1999/xlink" width="3300" height="2200">
<![CDATA[<svg width="24" height="24" viewBox="0 0 24 24" fill="none" xmlns="http://www.w3.org/2000/svg">
<path d="M8.70685 3.293C8.31685 3.683 8.33785 4.314 8.56885 4.816C8.81014 5.34125 8.88481 5.92779 8.78282 6.49674C8.68083 7.06569 8.40706 7.58977 7.99834 7.99849C7.58961 8.40721 7.06554 8.68098 6.49659 8.78297C5.92764 8.88497 5.3411 8.81029 4.81585 8.569C4.31385 8.339 3.68285 8.317 3.29285 8.707L2.70685 9.293C2.51938 9.48053 2.41406 9.73484 2.41406 10C2.41406 10.2652 2.51938 10.5195 2.70685 10.707L13.2928 21.293C13.4804 21.4805 13.7347 21.5858 13.9998 21.5858C14.265 21.5858 14.5193 21.4805 14.7068 21.293L15.2928 20.707C15.6828 20.317 15.6618 19.686 15.4308 19.184C15.1896 18.6588 15.1149 18.0722 15.2169 17.5033C15.3189 16.9343 15.5926 16.4102 16.0014 16.0015C16.4101 15.5928 16.9342 15.319 17.5031 15.217C18.0721 15.115 18.6586 15.1897 19.1838 15.431C19.6858 15.661 20.3169 15.683 20.7069 15.293L21.2928 14.707C21.4803 14.5195 21.5856 14.2652 21.5856 14C21.5856 13.7348 21.4803 13.4805 21.2928 13.293L10.7068 2.707C10.5193 2.51953 10.265 2.41422 9.99985 2.41422C9.73468 2.41422 9.48038 2.51953 9.29285 2.707L8.70685 3.293V3.293Z" stroke="white" stroke-width="2" stroke-linecap="round" stroke-linejoin="round"/>
</svg>
]]>
 <g id="Notes">
  <rect height="2200" id="artboard" style="fill:white;opacity:1" width="3300" x="0" y="0"/>
  <line id="" style="fill:none;stroke:black;opacity:1;stroke-width:0.5;" x1="263" x2="3036" y1="292" y2="292"/>
  <text id="reftext1" style="stroke:none;fill:black;font-family:-apple-system,&quot;SF Pro Display&quot;,&quot;SF Pro Text&quot;,Helvetica,sans-serif;font-weight:bold;" transform="matrix(1 0 0 1 263 322)">Weight/Scale Variations</text>
  <text id="reftext2" style="stroke:none;fill:black;font-family:-apple-system,&quot;SF Pro Display&quot;,&quot;SF Pro Text&quot;,Helvetica,sans-serif;text-anchor:middle;" transform="matrix(1 0 0 1 559.711 322)">Ultralight</text>
  <text style="stroke:none;fill:black;font-family:-apple-system,&quot;SF Pro Display&quot;,&quot;SF Pro Text&quot;,Helvetica,sans-serif;text-anchor:middle;" transform="matrix(1 0 0 1 856.422 322)">Thin</text>
  <text style="stroke:none;fill:black;font-family:-apple-system,&quot;SF Pro Display&quot;,&quot;SF Pro Text&quot;,Helvetica,sans-serif;text-anchor:middle;" transform="matrix(1 0 0 1 1153.13 322)">Light</text>
  <text style="stroke:none;fill:black;font-family:-apple-system,&quot;SF Pro Display&quot;,&quot;SF Pro Text&quot;,Helvetica,sans-serif;text-anchor:middle;" transform="matrix(1 0 0 1 1449.84 322)">Regular</text>
  <text style="stroke:none;fill:black;font-family:-apple-system,&quot;SF Pro Display&quot;,&quot;SF Pro Text&quot;,Helvetica,sans-serif;text-anchor:middle;" transform="matrix(1 0 0 1 1746.56 322)">Medium</text>
  <text style="stroke:none;fill:black;font-family:-apple-system,&quot;SF Pro Display&quot;,&quot;SF Pro Text&quot;,Helvetica,sans-serif;text-anchor:middle;" transform="matrix(1 0 0 1 2043.27 322)">Semibold</text>
  <text style="stroke:none;fill:black;font-family:-apple-system,&quot;SF Pro Display&quot;,&quot;SF Pro Text&quot;,Helvetica,sans-serif;text-anchor:middle;" transform="matrix(1 0 0 1 2339.98 322)">Bold</text>
  <text style="stroke:none;fill:black;font-family:-apple-system,&quot;SF Pro Display&quot;,&quot;SF Pro Text&quot;,Helvetica,sans-serif;text-anchor:middle;" transform="matrix(1 0 0 1 2636.69 322)">Heavy</text>
  <text style="stroke:none;fill:black;font-family:-apple-system,&quot;SF Pro Display&quot;,&quot;SF Pro Text&quot;,Helvetica,sans-serif;text-anchor:middle;" transform="matrix(1 0 0 1 2933.4 322)">Black</text>
  <line id="" style="fill:none;stroke:black;opacity:1;stroke-width:0.5;" x1="263" x2="3036" y1="1903" y2="1903"/>
  <g id="" transform="matrix(1 0 0 1 263 1933)">
   <path d="M9.24805 0.830078C13.5547 0.830078 17.1387-2.74414 17.1387-7.05078C17.1387-11.3574 13.5449-14.9316 9.23828-14.9316C4.94141-14.9316 1.36719-11.3574 1.36719-7.05078C1.36719-2.74414 4.95117 0.830078 9.24805 0.830078ZM9.24805-0.654297C5.70312-0.654297 2.87109-3.49609 2.87109-7.05078C2.87109-10.6055 5.69336-13.4473 9.23828-13.4473C12.793-13.4473 15.6348-10.6055 15.6445-7.05078C15.6543-3.49609 12.8027-0.654297 9.24805-0.654297ZM6.39648-6.31836L8.50586-6.31836L8.50586-4.19922C8.50586-3.75977 8.79883-3.45703 9.22852-3.45703C9.67773-3.45703 9.9707-3.75977 9.9707-4.19922L9.9707-6.31836L12.0996-6.31836C12.5391-6.31836 12.8418-6.61133 12.8418-7.04102C12.8418-7.48047 12.5391-7.7832 12.0996-7.7832L9.9707-7.7832L9.9707-9.89258C9.9707-10.3418 9.67773-10.6445 9.22852-10.6445C8.79883-10.6445 8.50586-10.3418 8.50586-9.89258L8.50586-7.7832L6.39648-7.7832C5.94727-7.7832 5.64453-7.48047 5.64453-7.04102C5.64453-6.61133 5.94727-6.31836 6.39648-6.31836Z"/>
  </g>
  <g id="" transform="matrix(1 0 0 1 281.506 1933)">
   <path d="M11.709 2.91016C17.1582 2.91016 21.6699-1.61133 21.6699-7.05078C21.6699-12.5 17.1484-17.0117 11.6992-17.0117C6.25977-17.0117 1.74805-12.5 1.74805-7.05078C1.74805-1.61133 6.26953 2.91016 11.709 2.91016ZM11.709 1.25C7.09961 1.25 3.41797-2.44141 3.41797-7.05078C3.41797-11.6602 7.08984-15.3516 11.6992-15.3516C16.3086-15.3516 20-11.6602 20.0098-7.05078C20.0195-2.44141 16.3184 1.25 11.709 1.25ZM7.98828-6.23047L10.8789-6.23047L10.8789-3.32031C10.8789-2.83203 11.2109-2.5 11.6895-2.5C12.1777-2.5 12.5195-2.83203 12.5195-3.32031L12.5195-6.23047L15.4297-6.23047C15.918-6.23047 16.25-6.5625 16.25-7.04102C16.25-7.5293 15.918-7.87109 15.4297-7.87109L12.5195-7.87109L12.5195-10.7617C12.5195-11.2695 12.1777-11.6016 11.6895-11.6016C11.2109-11.6016 10.8789-11.2598 10.8789-10.7617L10.8789-7.87109L7.98828-7.87109C7.48047-7.87109 7.14844-7.5293 7.14844-7.04102C7.14844-6.5625 7.49023-6.23047 7.98828-6.23047Z"/>
  </g>
  <g id="" transform="matrix(1 0 0 1 304.924 1933)">
   <path d="M14.9707 5.66406C21.9336 5.66406 27.6953-0.0976562 27.6953-7.05078C27.6953-14.0137 21.9238-19.7754 14.9609-19.7754C8.00781-19.7754 2.25586-14.0137 2.25586-7.05078C2.25586-0.0976562 8.01758 5.66406 14.9707 5.66406ZM14.9707 3.84766C8.93555 3.84766 4.08203-1.01562 4.08203-7.05078C4.08203-13.0957 8.92578-17.9492 14.9609-17.9492C21.0059-17.9492 25.8594-13.0957 25.8691-7.05078C25.8789-1.01562 21.0156 3.84766 14.9707 3.84766ZM10.0586-6.14258L14.0625-6.14258L14.0625-2.12891C14.0625-1.5918 14.4336-1.2207 14.9512-1.2207C15.4883-1.2207 15.8594-1.5918 15.8594-2.12891L15.8594-6.14258L19.8828-6.14258C20.4102-6.14258 20.791-6.51367 20.791-7.03125C20.791-7.56836 20.4199-7.94922 19.8828-7.94922L15.8594-7.94922L15.8594-11.9531C15.8594-12.5098 15.4883-12.8809 14.9512-12.8809C14.4336-12.8809 14.0625-12.5 14.0625-11.9531L14.0625-7.94922L10.0586-7.94922C9.50195-7.94922 9.13086-7.56836 9.13086-7.03125C9.13086-6.51367 9.51172-6.14258 10.0586-6.14258Z"/>
  </g>
  <text style="stroke:none;fill:black;font-family:-apple-system,&quot;SF Pro Display&quot;,&quot;SF Pro Text&quot;,Helvetica,sans-serif;font-weight:bold;" transform="matrix(1 0 0 1 263 1953)">Design Variations</text>
  <text style="stroke:none;fill:black;font-family:-apple-system,&quot;SF Pro Display&quot;,&quot;SF Pro Text&quot;,Helvetica,sans-serif;" transform="matrix(1 0 0 1 263 1971)">Symbols are supported in up to nine weights and three scales.</text>
  <text style="stroke:none;fill:black;font-family:-apple-system,&quot;SF Pro Display&quot;,&quot;SF Pro Text&quot;,Helvetica,sans-serif;" transform="matrix(1 0 0 1 263 1989)">For optimal layout with text and other symbols, vertically align</text>
  <text style="stroke:none;fill:black;font-family:-apple-system,&quot;SF Pro Display&quot;,&quot;SF Pro Text&quot;,Helvetica,sans-serif;" transform="matrix(1 0 0 1 263 2007)">symbols with the adjacent text.</text>
  <line id="" style="fill:none;stroke:#00AEEF;stroke-width:0.5;opacity:1.0;" x1="776" x2="776" y1="1919" y2="1933"/>
  <g id="" transform="matrix(1 0 0 1 776 1933)">
   <path d="M3.31055 0.126953C3.82812 0.126953 4.08203-0.0683594 4.26758-0.605469L5.52734-4.0625L11.2891-4.0625L12.5488-0.605469C12.7344-0.0683594 12.9883 0.126953 13.4961 0.126953C14.0137 0.126953 14.3457-0.185547 14.3457-0.673828C14.3457-0.839844 14.3164-0.986328 14.2383-1.20117L9.6582-13.3887C9.43359-13.9941 9.0332-14.2871 8.4082-14.2871C7.80273-14.2871 7.39258-13.9941 7.17773-13.3984L2.59766-1.19141C2.51953-0.976562 2.49023-0.830078 2.49023-0.664062C2.49023-0.175781 2.80273 0.126953 3.31055 0.126953ZM6.00586-5.53711L8.37891-12.1094L8.42773-12.1094L10.8008-5.53711Z"/>
  </g>
  <line id="" style="fill:none;stroke:#00AEEF;stroke-width:0.5;opacity:1.0;" x1="792.836" x2="792.836" y1="1919" y2="1933"/>
  <text style="stroke:none;fill:black;font-family:-apple-system,&quot;SF Pro Display&quot;,&quot;SF Pro Text&quot;,Helvetica,sans-serif;font-weight:bold;" transform="matrix(1 0 0 1 776 1953)">Margins</text>
  <text style="stroke:none;fill:black;font-family:-apple-system,&quot;SF Pro Display&quot;,&quot;SF Pro Text&quot;,Helvetica,sans-serif;" transform="matrix(1 0 0 1 776 1971)">Leading and trailing margins on the left and right side of each symbol</text>
  <text style="stroke:none;fill:black;font-family:-apple-system,&quot;SF Pro Display&quot;,&quot;SF Pro Text&quot;,Helvetica,sans-serif;" transform="matrix(1 0 0 1 776 1989)">can be adjusted by modifying the x-location of the margin guidelines.</text>
  <text style="stroke:none;fill:black;font-family:-apple-system,&quot;SF Pro Display&quot;,&quot;SF Pro Text&quot;,Helvetica,sans-serif;" transform="matrix(1 0 0 1 776 2007)">Modifications are automatically applied proportionally to all</text>
  <text style="stroke:none;fill:black;font-family:-apple-system,&quot;SF Pro Display&quot;,&quot;SF Pro Text&quot;,Helvetica,sans-serif;" transform="matrix(1 0 0 1 776 2025)">scales and weights.</text>
  <g id="" transform="matrix(1 0 0 1 1289 1933)">
   <path d="M2.8418 1.86523L4.54102 3.57422C5.40039 4.44336 6.38672 4.38477 7.31445 3.35938L17.4902-7.85156C17.7539-7.76367 18.0273-7.7832 18.3398-7.8418L19.4043-8.03711L20.0684-7.36328L20.0293-6.80664C19.9902-6.30859 20.1172-5.92773 20.6055-5.44922L21.3672-4.70703C21.8457-4.22852 22.4609-4.19922 22.9297-4.66797L25.8398-7.58789C26.3086-8.05664 26.2891-8.65234 25.8105-9.13086L25.0391-9.89258C24.5605-10.3711 24.1895-10.5273 23.7109-10.4883L23.1348-10.4395L22.4902-11.0742L22.7344-12.1973C22.8613-12.7637 22.7051-13.2031 22.1191-13.7891L19.9219-15.9766C16.582-19.2969 12.1484-19.2188 9.25781-16.3281C8.83789-15.918 8.80859-15.3418 9.04297-14.9512C9.27734-14.5898 9.73633-14.3555 10.3809-14.5215C11.8457-14.8633 13.3691-14.9219 14.7949-13.9844L14.209-12.5293C14.0137-12.0508 13.9844-11.6504 14.1113-11.2891L3.04688-0.898438C2.06055 0.0195312 1.98242 0.996094 2.8418 1.86523ZM10.752-15.957C13.1836-17.7344 16.4746-17.4316 18.7012-15.2051L21.1328-12.793C21.3672-12.5586 21.4062-12.373 21.3379-12.0312L21.0156-10.5469L22.5195-9.0625L23.5059-9.12109C23.7598-9.13086 23.8379-9.11133 24.0332-8.91602L24.6094-8.33984L22.168-5.89844L21.5918-6.47461C21.3965-6.66992 21.3672-6.74805 21.377-7.01172L21.4453-7.98828L19.9512-9.47266L18.4277-9.21875C18.1055-9.15039 17.959-9.17969 17.7148-9.41406L15.7129-11.416C15.459-11.6504 15.4297-11.8164 15.5859-12.1875L16.4648-14.2773C14.9023-15.7324 12.8711-16.3574 10.8398-15.7617C10.6836-15.7227 10.625-15.8496 10.752-15.957ZM5.27344 2.30469L4.10156 1.14258C3.63281 0.683594 3.74023 0.341797 4.14062-0.0195312L14.9512-10.1953L16.416-8.71094L6.42578 2.27539C6.07422 2.67578 5.74219 2.77344 5.27344 2.30469Z"/>
  </g>
  <text style="stroke:none;fill:black;font-family:-apple-system,&quot;SF Pro Display&quot;,&quot;SF Pro Text&quot;,Helvetica,sans-serif;font-weight:bold;" transform="matrix(1 0 0 1 1289 1953)">Exporting</text>
  <text style="stroke:none;fill:black;font-family:-apple-system,&quot;SF Pro Display&quot;,&quot;SF Pro Text&quot;,Helvetica,sans-serif;" transform="matrix(1 0 0 1 1289 1971)">Symbols should be outlined when exporting to ensure the</text>
  <text style="stroke:none;fill:black;font-family:-apple-system,&quot;SF Pro Display&quot;,&quot;SF Pro Text&quot;,Helvetica,sans-serif;" transform="matrix(1 0 0 1 1289 1989)">design is preserved when submitting to Xcode.</text>
  <text id="template-version" style="stroke:none;fill:black;font-family:-apple-system,&quot;SF Pro Display&quot;,&quot;SF Pro Text&quot;,Helvetica,sans-serif;text-anchor:end;" transform="matrix(1 0 0 1 3036 1933)">Template v.2.0</text>
  <text style="stroke:none;fill:black;font-family:-apple-system,&quot;SF Pro Display&quot;,&quot;SF Pro Text&quot;,Helvetica,sans-serif;text-anchor:end;" transform="matrix(1 0 0 1 3036 1951)">Requires Xcode 12 or greater</text>
  <text style="stroke:none;fill:black;font-family:-apple-system,&quot;SF Pro Display&quot;,&quot;SF Pro Text&quot;,Helvetica,sans-serif;" transform="matrix(1 0 0 1 263 726)">Small</text>
  <text style="stroke:none;fill:black;font-family:-apple-system,&quot;SF Pro Display&quot;,&quot;SF Pro Text&quot;,Helvetica,sans-serif;" transform="matrix(1 0 0 1 263 1156)">Medium</text>
  <text style="stroke:none;fill:black;font-family:-apple-system,&quot;SF Pro Display&quot;,&quot;SF Pro Text&quot;,Helvetica,sans-serif;" transform="matrix(1 0 0 1 263 1586)">Large</text>
 </g>
 <g id="Guides">
  <g id="H-reference" style="fill:#27AAE1;stroke:none;" transform="matrix(1 0 0 1 339 696)">
   <path d="M0.976562 0L3.66211 0L12.9883-24.4629L45.752-24.4629L55.127 0L57.7637 0L30.6152-70.459L28.125-70.459ZM29.3457-67.1387L29.4434-67.1387L44.873-26.709L13.8672-26.709Z"/>
  </g>
  <line id="Baseline-S" style="fill:none;stroke:#27AAE1;opacity:1;stroke-width:0.5;" x1="263" x2="3036" y1="696" y2="696"/>
  <line id="Capline-S" style="fill:none;stroke:#27AAE1;opacity:1;stroke-width:0.5;" x1="263" x2="3036" y1="625.541" y2="625.541"/>
  <g id="H-reference" style="fill:#27AAE1;stroke:none;" transform="matrix(1 0 0 1 339 1126)">
   <path d="M0.976562 0L3.66211 0L12.9883-24.4629L45.752-24.4629L55.127 0L57.7637 0L30.6152-70.459L28.125-70.459ZM29.3457-67.1387L29.4434-67.1387L44.873-26.709L13.8672-26.709Z"/>
  </g>
  <line id="Baseline-M" style="fill:none;stroke:#27AAE1;opacity:1;stroke-width:0.5;" x1="263" x2="3036" y1="1126" y2="1126"/>
  <line id="Capline-M" style="fill:none;stroke:#27AAE1;opacity:1;stroke-width:0.5;" x1="263" x2="3036" y1="1055.54" y2="1055.54"/>
  <g id="H-reference" style="fill:#27AAE1;stroke:none;" transform="matrix(1 0 0 1 339 1556)">
   <path d="M0.976562 0L3.66211 0L12.9883-24.4629L45.752-24.4629L55.127 0L57.7637 0L30.6152-70.459L28.125-70.459ZM29.3457-67.1387L29.4434-67.1387L44.873-26.709L13.8672-26.709Z"/>
  </g>
  <line id="Baseline-L" style="fill:none;stroke:#27AAE1;opacity:1;stroke-width:0.5;" x1="263" x2="3036" y1="1556" y2="1556"/>
  <line id="Capline-L" style="fill:none;stroke:#27AAE1;opacity:1;stroke-width:0.5;" x1="263" x2="3036" y1="1485.54" y2="1485.54"/>
  <line id="left-margin" x1="1415.9000195312499" x2="1415.9000195312499" y1="1030.79" y2="1150.12" style="fill:none;stroke:#00AEEF;stroke-width:0.5;opacity:1.0;"/>
  <line id="right-margin" x1="1486.3599804687499" x2="1486.3599804687499" y1="1030.79" y2="1150.12" style="fill:none;stroke:#00AEEF;stroke-width:0.5;opacity:1.0;"/>
 </g>
 <g id="Symbols">
  <g id="Black-L" transform="matrix(1.0,0.0,0.0,1.0,2889.2333251953123,1475.5960247753906)">  <path stroke-linecap="round" stroke-opacity="1" fill-opacity="1" stroke-linejoin="round" stroke-width="2px" fill="#000000" stroke="none" stroke-miterlimit="4" stroke-dasharray="none" fill-rule="nonzero" d="M27.056,6.553C22.876,10.733,22.55,16.743,24.849,21.738C25.047,22.169,25.109,22.656,25.024,23.128C24.939,23.6,24.712,24.035,24.373,24.374C24.034,24.713,23.599,24.94,23.127,25.025C22.655,25.109,22.168,25.047,21.733,24.847C16.73,22.555,10.731,22.878,6.552,27.057L4.333,29.276C2.053,31.557,0.773,34.649,0.773,37.872C0.773,41.096,2.053,44.188,4.333,46.468L44.424,86.56C46.706,88.84,49.797,90.12,53.02,90.12C56.244,90.12,59.336,88.84,61.616,86.56L63.836,84.34C68.016,80.16,68.342,74.151,66.043,69.155C65.846,68.725,65.784,68.238,65.868,67.766C65.953,67.293,66.18,66.859,66.518,66.52C66.858,66.18,67.293,65.953,67.765,65.869C68.237,65.784,68.723,65.846,69.159,66.046C74.162,68.338,80.161,68.015,84.34,63.836L86.559,61.617C88.839,59.337,90.119,56.245,90.119,53.021C90.119,49.797,88.839,46.705,86.559,44.425L46.467,4.334C44.187,2.054,41.095,0.773,37.872,0.773C34.648,0.773,31.557,2.054,29.277,4.333L27.056,6.553ZM38.893,18.39L41.112,16.17C40.252,17.03,39.087,17.513,37.872,17.513C36.656,17.513,35.491,17.03,34.631,16.171L74.722,56.262C73.863,55.402,73.38,54.236,73.38,53.021C73.38,51.806,73.863,50.64,74.722,49.78L72.503,52C73.342,51.161,74.361,50.75,75.247,50.702C75.662,50.68,75.93,50.736,76.14,50.832C72.605,49.208,68.649,48.704,64.811,49.392C60.974,50.08,57.439,51.926,54.683,54.683C51.926,57.439,50.079,60.974,49.391,64.812C48.703,68.649,49.207,72.605,50.834,76.147C50.737,75.938,50.68,75.663,50.703,75.243C50.751,74.357,51.163,73.34,51.999,72.504L49.78,74.723C50.639,73.863,51.805,73.38,53.02,73.38C54.236,73.38,55.401,73.863,56.26,74.721L16.17,34.631C17.03,35.491,17.512,36.657,17.512,37.872C17.512,39.087,17.03,40.253,16.171,41.112L18.389,38.894C17.551,39.732,16.532,40.143,15.646,40.191C15.23,40.214,14.962,40.158,14.752,40.062C18.287,41.686,22.244,42.189,26.081,41.501C29.918,40.814,33.453,38.967,36.21,36.21C38.967,33.454,40.813,29.919,41.501,26.081C42.189,22.244,41.685,18.288,40.058,14.745C40.155,14.956,40.212,15.23,40.189,15.65C40.141,16.536,39.73,17.553,38.893,18.39Z"/>
</g>
  <g id="Heavy-L" transform="matrix(1.0,0.0,0.0,1.0,2592.5233251953123,1475.5960247753906)">  <path stroke="none" stroke-width="2px" fill-opacity="1" stroke-linejoin="round" fill-rule="nonzero" stroke-dasharray="none" stroke-opacity="1" stroke-miterlimit="4" fill="#000000" stroke-linecap="round" d="M27.705,7.201C23.833,11.073,23.528,16.676,25.681,21.355C25.958,21.957,26.044,22.633,25.926,23.289C25.809,23.946,25.493,24.55,25.021,25.022C24.55,25.493,23.945,25.809,23.289,25.927C22.633,26.044,21.956,25.958,21.35,25.68C16.664,23.533,11.071,23.834,7.201,27.705L4.981,29.924C2.873,32.033,1.689,34.892,1.689,37.872C1.689,40.853,2.873,43.712,4.981,45.82L45.073,85.912C47.182,88.02,50.04,89.203,53.02,89.203C56.001,89.203,58.86,88.02,60.968,85.912L63.187,83.692C67.059,79.82,67.364,74.217,65.211,69.538C64.935,68.937,64.848,68.26,64.966,67.604C65.084,66.947,65.399,66.343,65.87,65.872C66.343,65.4,66.947,65.084,67.603,64.966C68.26,64.849,68.936,64.935,69.542,65.213C74.228,67.36,79.821,67.059,83.692,63.188L85.911,60.968C88.019,58.861,89.203,56.002,89.203,53.021C89.203,50.04,88.019,47.181,85.911,45.073L45.819,4.982C43.711,2.874,40.852,1.69,37.872,1.69C34.891,1.69,32.033,2.874,29.925,4.981L27.705,7.201ZM38.245,17.742L40.464,15.522C39.776,16.21,38.844,16.596,37.872,16.596C36.899,16.596,35.967,16.21,35.279,15.523L75.37,55.614C74.682,54.926,74.296,53.993,74.296,53.021C74.296,52.049,74.682,51.116,75.37,50.428L73.151,52.648C73.821,51.978,74.625,51.653,75.296,51.617C75.558,51.603,75.679,51.629,75.758,51.665C72.392,50.119,68.626,49.639,64.973,50.294C61.32,50.949,57.955,52.707,55.331,55.331C52.706,57.955,50.948,61.32,50.293,64.974C49.639,68.626,50.118,72.392,51.667,75.765C51.63,75.685,51.604,75.559,51.618,75.293C51.655,74.622,51.979,73.82,52.647,73.152L50.428,75.371C51.116,74.683,52.048,74.297,53.02,74.297C53.993,74.297,54.925,74.683,55.612,75.37L15.522,35.28C16.21,35.968,16.596,36.9,16.596,37.872C16.596,38.844,16.21,39.777,15.523,40.464L17.741,38.246C17.071,38.915,16.267,39.24,15.596,39.276C15.335,39.29,15.213,39.265,15.134,39.229C18.5,40.775,22.266,41.254,25.919,40.599C29.572,39.945,32.937,38.187,35.562,35.562C38.186,32.938,39.944,29.573,40.599,25.92C41.254,22.267,40.774,18.501,39.225,15.128C39.262,15.208,39.288,15.335,39.274,15.6C39.237,16.271,38.913,17.074,38.245,17.742Z"/>
</g>
  <g id="Bold-L" transform="matrix(1.0,0.0,0.0,1.0,2295.8133251953122,1475.5960247753906)">  <path stroke="none" stroke-miterlimit="4" fill-opacity="1" stroke-dasharray="none" fill-rule="nonzero" stroke-linecap="round" stroke-opacity="1" stroke-width="2px" fill="#000000" stroke-linejoin="round" d="M28.353,7.849C24.789,11.413,24.507,16.609,26.514,20.972C26.869,21.744,26.979,22.611,26.828,23.451C26.678,24.292,26.273,25.066,25.669,25.67C25.065,26.274,24.291,26.678,23.451,26.829C22.61,26.98,21.743,26.869,20.967,26.513C16.599,24.511,11.411,24.791,7.849,28.353L5.629,30.572C3.693,32.509,2.606,35.135,2.606,37.872C2.606,40.61,3.693,43.236,5.629,45.172L45.721,85.264C47.658,87.2,50.283,88.287,53.02,88.287C55.758,88.287,58.384,87.2,60.32,85.264L62.539,83.044C66.103,79.48,66.385,74.284,64.378,69.922C64.024,69.15,63.913,68.283,64.064,67.442C64.215,66.601,64.619,65.827,65.222,65.224C65.827,64.62,66.601,64.215,67.442,64.064C68.282,63.914,69.148,64.024,69.924,64.38C74.293,66.382,79.481,66.103,83.044,62.54L85.263,60.32C87.199,58.385,88.286,55.759,88.286,53.021C88.286,50.283,87.199,47.657,85.263,45.721L45.171,5.63C43.235,3.694,40.609,2.606,37.872,2.606C35.134,2.606,32.509,3.694,30.573,5.629L28.353,7.849ZM37.597,17.094L39.816,14.874C39.3,15.39,38.601,15.68,37.872,15.68C37.142,15.68,36.443,15.39,35.927,14.875L76.018,54.966C75.502,54.45,75.213,53.75,75.213,53.021C75.213,52.292,75.502,51.592,76.018,51.077L73.799,53.296C74.3,52.795,74.89,52.557,75.345,52.533C75.453,52.527,75.427,52.521,75.376,52.498C72.18,51.029,68.604,50.574,65.135,51.196C61.666,51.818,58.471,53.487,55.979,55.979C53.487,58.47,51.818,61.666,51.196,65.135C50.574,68.604,51.029,72.18,52.5,75.382C52.523,75.433,52.527,75.454,52.533,75.343C52.558,74.887,52.796,74.299,53.295,73.8L51.076,76.019C51.592,75.503,52.291,75.213,53.02,75.213C53.75,75.213,54.449,75.503,54.964,76.018L14.874,35.928C15.39,36.444,15.679,37.143,15.679,37.872C15.679,38.601,15.39,39.301,14.874,39.816L17.093,37.598C16.592,38.098,16.003,38.336,15.547,38.361C15.439,38.367,15.465,38.372,15.516,38.395C18.712,39.864,22.289,40.319,25.758,39.697C29.226,39.075,32.422,37.406,34.914,34.914C37.406,32.422,39.075,29.227,39.697,25.758C40.319,22.289,39.863,18.713,38.392,15.511C38.369,15.46,38.365,15.44,38.359,15.551C38.334,16.006,38.096,16.594,37.597,17.094Z"/>
</g>
  <g id="Semibold-L" transform="matrix(1.0,0.0,0.0,1.0,1999.1033251953124,1475.5960247753906)">  <path stroke-linejoin="round" stroke-linecap="round" stroke-miterlimit="4" stroke-opacity="1" fill-opacity="1" stroke="none" fill="#000000" fill-rule="nonzero" stroke-dasharray="none" stroke-width="2px" d="M29.001,8.497C25.745,11.753,25.485,16.543,27.347,20.589C27.78,21.532,27.914,22.588,27.73,23.613C27.547,24.638,27.054,25.582,26.317,26.318C25.581,27.054,24.637,27.547,23.612,27.731C22.588,27.915,21.531,27.78,20.585,27.346C16.533,25.489,11.751,25.747,8.497,29.001L6.277,31.221C4.513,32.985,3.522,35.378,3.522,37.872C3.522,40.367,4.513,42.759,6.277,44.524L46.369,84.615C48.134,86.38,50.526,87.37,53.02,87.37C55.515,87.37,57.908,86.38,59.672,84.615L61.891,82.396C65.147,79.14,65.407,74.35,63.546,70.305C63.113,69.362,62.978,68.305,63.162,67.281C63.346,66.255,63.839,65.312,64.574,64.576C65.311,63.839,66.255,63.346,67.28,63.162C68.305,62.979,69.361,63.113,70.307,63.548C74.359,65.404,79.141,65.147,82.396,61.892L84.615,59.672C86.379,57.909,87.37,55.516,87.37,53.021C87.37,50.526,86.379,48.134,84.615,46.369L44.523,6.278C42.759,4.514,40.366,3.523,37.872,3.523C35.377,3.523,32.985,4.514,31.221,6.277L29.001,8.497ZM36.949,16.445L39.168,14.226C38.824,14.57,38.358,14.763,37.872,14.763C37.385,14.763,36.919,14.57,36.575,14.226L76.666,54.318C76.322,53.974,76.129,53.507,76.129,53.021C76.129,52.535,76.322,52.069,76.666,51.725L74.447,53.944C74.779,53.612,75.154,53.461,75.394,53.448C75.348,53.45,75.176,53.414,74.994,53.331C71.967,51.94,68.581,51.509,65.296,52.098C62.012,52.687,58.986,54.268,56.627,56.627C54.267,58.986,52.687,62.012,52.098,65.297C51.509,68.581,51.94,71.967,53.333,75C53.416,75.181,53.451,75.349,53.449,75.392C53.462,75.152,53.613,74.778,53.943,74.448L51.724,76.667C52.068,76.323,52.534,76.13,53.02,76.13C53.506,76.13,53.972,76.323,54.316,76.666L14.226,36.576C14.57,36.92,14.763,37.386,14.763,37.872C14.763,38.358,14.57,38.824,14.226,39.168L16.445,36.949C16.113,37.281,15.738,37.433,15.498,37.446C15.544,37.443,15.716,37.479,15.898,37.562C18.925,38.953,22.311,39.384,25.596,38.795C28.88,38.206,31.906,36.626,34.266,34.266C36.625,31.907,38.206,28.881,38.795,25.596C39.383,22.312,38.952,18.925,37.559,15.893C37.476,15.712,37.441,15.545,37.443,15.501C37.43,15.741,37.279,16.115,36.949,16.445Z"/>
</g>
  <g id="Medium-L" transform="matrix(1.0,0.0,0.0,1.0,1702.3933251953124,1475.5960247753906)">  <path stroke-opacity="1" fill-rule="nonzero" stroke-dasharray="none" stroke-linecap="round" stroke-miterlimit="4" fill-opacity="1" stroke-linejoin="round" stroke="none" fill="#000000" stroke-width="2px" d="M29.649,9.145C26.701,12.093,26.463,16.476,28.179,20.206C28.691,21.319,28.849,22.566,28.633,23.775C28.416,24.984,27.834,26.097,26.965,26.966C26.097,27.835,24.983,28.416,23.774,28.633C22.565,28.85,21.319,28.691,20.202,28.178C16.467,26.467,12.091,26.703,9.145,29.649L6.925,31.869C5.333,33.461,4.439,35.621,4.439,37.872C4.439,40.124,5.333,42.283,6.925,43.876L47.017,83.967C48.61,85.56,50.769,86.454,53.02,86.454C55.272,86.454,57.432,85.56,59.024,83.967L61.243,81.748C64.191,78.8,64.429,74.417,62.713,70.688C62.202,69.575,62.043,68.328,62.26,67.119C62.477,65.909,63.058,64.796,63.927,63.928C64.795,63.059,65.909,62.477,67.118,62.26C68.327,62.043,69.573,62.202,70.69,62.715C74.425,64.426,78.801,64.19,81.748,61.244L83.967,59.024C85.559,57.432,86.453,55.273,86.453,53.021C86.453,50.769,85.559,48.61,83.967,47.018L43.875,6.926C42.283,5.334,40.123,4.439,37.872,4.439C35.62,4.439,33.461,5.334,31.869,6.925L29.649,9.145ZM36.301,15.797L38.52,13.578C38.348,13.75,38.115,13.847,37.872,13.847C37.629,13.847,37.395,13.75,37.223,13.578L77.315,53.67C77.142,53.497,77.046,53.264,77.046,53.021C77.046,52.778,77.142,52.545,77.315,52.373L75.095,54.592C75.259,54.429,75.419,54.364,75.444,54.363C75.243,54.374,74.925,54.307,74.613,54.164C71.755,52.851,68.559,52.444,65.458,53C62.358,53.556,59.502,55.048,57.275,57.275C55.048,59.502,53.556,62.358,53,65.459C52.444,68.559,52.851,71.755,54.165,74.617C54.309,74.929,54.374,75.244,54.364,75.442C54.365,75.417,54.429,75.258,54.591,75.096L52.372,77.315C52.544,77.143,52.777,77.047,53.02,77.047C53.263,77.047,53.496,77.143,53.668,77.314L13.577,37.224C13.75,37.396,13.846,37.629,13.846,37.872C13.846,38.115,13.75,38.348,13.578,38.52L15.797,36.301C15.634,36.464,15.474,36.529,15.449,36.53C15.649,36.52,15.967,36.586,16.279,36.729C19.137,38.042,22.334,38.449,25.434,37.893C28.534,37.337,31.39,35.845,33.617,33.618C35.845,31.391,37.337,28.535,37.892,25.435C38.448,22.334,38.041,19.138,36.726,16.276C36.583,15.965,36.518,15.65,36.528,15.451C36.527,15.477,36.463,15.636,36.301,15.797Z"/>
</g>
  <g id="Regular-L" transform="matrix(1.0,0.0,0.0,1.0,1405.6833251953124,1475.5960247753906)">  <path stroke-dasharray="none" stroke-linejoin="round" stroke="none" fill-opacity="1" stroke-opacity="1" stroke-linecap="round" stroke-miterlimit="4" fill-rule="nonzero" stroke-width="2px" fill="#000000" d="M30.297,9.793C27.657,12.433,27.441,16.41,29.012,19.822C29.602,21.107,29.784,22.543,29.535,23.936C29.285,25.33,28.614,26.613,27.614,27.614C26.613,28.615,25.329,29.285,23.936,29.535C22.542,29.785,21.106,29.602,19.82,29.011C16.402,27.445,12.431,27.659,9.793,30.297L7.573,32.517C6.153,33.938,5.355,35.864,5.355,37.872C5.355,39.881,6.153,41.807,7.573,43.228L47.665,83.319C49.086,84.74,51.012,85.537,53.02,85.537C55.029,85.537,56.956,84.74,58.376,83.319L60.595,81.1C63.235,78.461,63.451,74.484,61.88,71.071C61.291,69.787,61.108,68.35,61.358,66.957C61.607,65.563,62.278,64.28,63.279,63.28C64.28,62.278,65.563,61.608,66.957,61.358C68.35,61.108,69.786,61.291,71.072,61.882C74.49,63.448,78.461,63.234,81.1,60.596L83.319,58.376C84.739,56.956,85.537,55.03,85.537,53.021C85.537,51.012,84.739,49.086,83.319,47.666L43.227,7.574C41.806,6.154,39.88,5.356,37.872,5.356C35.863,5.356,33.937,6.154,32.517,7.574L30.297,9.793ZM35.653,15.149L37.872,12.93C37.872,12.93,37.872,12.93,37.872,12.93C37.872,12.93,37.871,12.93,37.871,12.93L77.963,53.022C77.962,53.021,77.962,53.021,77.962,53.021C77.962,53.021,77.962,53.021,77.963,53.021L75.743,55.24C75.652,55.332,75.033,55.365,74.231,54.998C71.542,53.762,68.536,53.38,65.62,53.902C62.704,54.425,60.018,55.828,57.923,57.923C55.828,60.018,54.425,62.704,53.902,65.621C53.379,68.536,53.762,71.543,54.998,74.235C55.366,75.034,55.332,75.651,55.239,75.744L53.02,77.963C53.02,77.963,53.02,77.963,53.02,77.963C53.02,77.963,53.02,77.963,53.02,77.963L12.929,37.872C12.93,37.872,12.93,37.872,12.93,37.872C12.93,37.872,12.93,37.872,12.93,37.872L15.149,35.653C15.24,35.562,15.859,35.528,16.661,35.896C19.35,37.131,22.356,37.514,25.272,36.991C28.188,36.468,30.875,35.065,32.969,32.97C35.064,30.875,36.468,28.189,36.99,25.273C37.513,22.357,37.13,19.35,35.894,16.658C35.526,15.86,35.56,15.242,35.653,15.149Z"/>
</g>
  <g id="Light-L" transform="matrix(1.0,0.0,0.0,1.0,1108.9733251953126,1475.5960247753906)">  <path stroke-dasharray="none" stroke-opacity="1" fill="#000000" fill-opacity="1" stroke-miterlimit="4" stroke-width="2px" stroke-linecap="round" stroke="none" stroke-linejoin="round" fill-rule="nonzero" d="M30.743,10.24C28.316,12.667,28.115,16.364,29.585,19.559C30.229,20.96,30.429,22.527,30.156,24.048C29.883,25.568,29.152,26.968,28.06,28.06C26.968,29.153,25.567,29.884,24.047,30.157C22.527,30.429,20.96,30.23,19.556,29.585C16.357,28.119,12.665,28.318,10.239,30.744L8.02,32.963C6.718,34.265,5.987,36.031,5.987,37.872C5.987,39.713,6.718,41.479,8.02,42.781L48.111,82.873C49.414,84.175,51.18,84.906,53.02,84.906C54.862,84.906,56.628,84.175,57.93,82.873L60.149,80.654C62.576,78.226,62.777,74.529,61.307,71.335C60.663,69.933,60.464,68.366,60.736,66.846C61.009,65.325,61.74,63.925,62.832,62.833C63.925,61.741,65.325,61.009,66.845,60.737C68.365,60.464,69.932,60.664,71.336,61.308C74.535,62.774,78.227,62.576,80.653,60.15L82.872,57.93C84.174,56.628,84.905,54.862,84.905,53.021C84.905,51.18,84.174,49.414,82.872,48.112L42.781,8.02C41.479,6.718,39.713,5.987,37.872,5.987C36.031,5.987,34.265,6.718,32.963,8.02L30.743,10.24ZM35.206,14.703L37.426,12.484C37.544,12.366,37.704,12.299,37.872,12.299C38.039,12.299,38.199,12.366,38.318,12.484L78.409,52.575C78.527,52.693,78.593,52.854,78.593,53.021C78.593,53.189,78.527,53.349,78.409,53.467L76.19,55.687C75.886,55.99,74.988,56.039,73.968,55.571C71.396,54.39,68.521,54.024,65.731,54.524C62.942,55.024,60.373,56.366,58.369,58.37C56.365,60.373,55.023,62.942,54.523,65.732C54.023,68.521,54.389,71.396,55.572,73.971C56.04,74.988,55.991,75.885,55.686,76.19L53.466,78.41C53.348,78.528,53.188,78.594,53.02,78.594C52.853,78.594,52.693,78.528,52.574,78.409L12.483,38.318C12.365,38.2,12.299,38.04,12.299,37.872C12.299,37.705,12.365,37.544,12.483,37.426L14.702,35.207C15.006,34.903,15.904,34.855,16.924,35.322C19.496,36.504,22.372,36.87,25.161,36.37C27.95,35.87,30.519,34.527,32.523,32.524C34.527,30.52,35.869,27.951,36.369,25.161C36.869,22.372,36.503,19.497,35.32,16.922C34.852,15.905,34.901,15.008,35.206,14.703Z"/>
</g>
  <g id="Thin-L" transform="matrix(1.0,0.0,0.0,1.0,812.2633251953125,1475.5960247753906)">  <path fill="#000000" stroke-opacity="1" stroke-dasharray="none" fill-rule="nonzero" stroke-width="2px" stroke-miterlimit="4" stroke="none" stroke-linecap="round" fill-opacity="1" stroke-linejoin="round" d="M31.189,10.686C28.974,12.901,28.789,16.318,30.159,19.295C30.856,20.814,31.073,22.512,30.777,24.159C30.482,25.806,29.689,27.323,28.506,28.507C27.323,29.69,25.806,30.483,24.159,30.778C22.511,31.073,20.813,30.857,19.293,30.158C16.311,28.792,12.899,28.976,10.685,31.19L8.466,33.409C7.283,34.593,6.618,36.199,6.618,37.872C6.618,39.546,7.283,41.151,8.466,42.335L48.557,82.427C49.742,83.61,51.347,84.275,53.02,84.275C54.694,84.275,56.3,83.61,57.483,82.427L59.703,80.207C61.918,77.992,62.103,74.575,60.734,71.599C60.036,70.08,59.82,68.381,60.115,66.734C60.41,65.087,61.203,63.57,62.386,62.387C63.569,61.203,65.087,60.411,66.734,60.115C68.381,59.82,70.079,60.036,71.599,60.735C74.581,62.101,77.993,61.917,80.207,59.703L82.426,57.484C83.61,56.3,84.274,54.695,84.274,53.021C84.274,51.347,83.61,49.742,82.426,48.558L42.334,8.467C41.151,7.283,39.545,6.618,37.872,6.618C36.198,6.618,34.593,7.283,33.409,8.466L31.189,10.686ZM34.76,14.257L36.979,12.037C37.216,11.801,37.537,11.668,37.872,11.668C38.206,11.668,38.527,11.801,38.764,12.037L78.855,52.129C79.092,52.365,79.225,52.686,79.225,53.021C79.225,53.356,79.092,53.677,78.855,53.913L76.636,56.133C76.12,56.649,74.942,56.712,73.705,56.145C71.25,55.017,68.505,54.668,65.843,55.145C63.18,55.622,60.728,56.903,58.816,58.816C56.903,60.728,55.622,63.181,55.145,65.843C54.667,68.505,55.017,71.25,56.145,73.708C56.713,74.942,56.65,76.119,56.132,76.637L53.913,78.856C53.676,79.093,53.355,79.225,53.02,79.225C52.686,79.225,52.365,79.092,52.128,78.856L12.037,38.764C11.8,38.528,11.667,38.207,11.667,37.872C11.667,37.538,11.8,37.216,12.037,36.98L14.256,34.761C14.772,34.245,15.95,34.181,17.187,34.748C19.643,35.876,22.387,36.226,25.05,35.748C27.712,35.271,30.164,33.99,32.077,32.077C33.989,30.165,35.27,27.712,35.748,25.05C36.225,22.388,35.876,19.643,34.746,17.185C34.179,15.951,34.243,14.774,34.76,14.257Z"/>
</g>
  <g id="Ultralight-L" transform="matrix(1.0,0.0,0.0,1.0,515.5533251953125,1475.5960247753906)">  <path stroke-linejoin="round" stroke-width="2px" stroke-linecap="round" fill="#000000" stroke="none" stroke-dasharray="none" stroke-miterlimit="4" fill-opacity="1" fill-rule="nonzero" stroke-opacity="1" d="M31.636,11.132C29.633,13.135,29.462,16.272,30.732,19.031C31.484,20.668,31.717,22.496,31.399,24.27C31.081,26.045,30.227,27.679,28.953,28.953C27.678,30.228,26.044,31.081,24.27,31.399C22.496,31.717,20.667,31.484,19.029,30.732C16.266,29.466,13.133,29.635,11.132,31.636L8.912,33.856C7.847,34.921,7.249,36.366,7.249,37.872C7.249,39.379,7.847,40.823,8.912,41.889L49.004,81.98C50.07,83.046,51.514,83.644,53.02,83.644C54.527,83.644,55.972,83.046,57.037,81.98L59.256,79.761C61.259,77.758,61.43,74.621,60.16,71.863C59.409,70.226,59.176,68.397,59.494,66.623C59.812,64.849,60.665,63.214,61.94,61.94C63.214,60.666,64.848,59.812,66.622,59.494C68.396,59.176,70.225,59.409,71.863,60.161C74.626,61.427,77.759,61.259,79.761,59.257L81.98,57.038C83.045,55.972,83.643,54.528,83.643,53.021C83.643,51.515,83.045,50.07,81.98,49.005L41.888,8.913C40.823,7.848,39.378,7.25,37.872,7.25C36.365,7.25,34.921,7.848,33.855,8.913L31.636,11.132ZM34.314,13.81L36.533,11.591C36.888,11.236,37.37,11.037,37.872,11.037C38.374,11.037,38.855,11.236,39.21,11.591L79.302,51.683C79.657,52.037,79.856,52.519,79.856,53.021C79.856,53.523,79.657,54.005,79.302,54.36L77.083,56.579C76.354,57.307,74.897,57.386,73.442,56.719C71.103,55.645,68.49,55.312,65.954,55.766C63.419,56.221,61.083,57.441,59.262,59.262C57.44,61.083,56.22,63.419,55.766,65.955C55.311,68.49,55.644,71.104,56.719,73.444C57.387,74.896,57.308,76.353,56.578,77.083L54.359,79.302C54.004,79.657,53.523,79.857,53.02,79.857C52.518,79.857,52.037,79.657,51.681,79.302L11.59,39.211C11.236,38.856,11.036,38.374,11.036,37.872C11.036,37.37,11.236,36.889,11.591,36.533L13.81,34.314C14.538,33.586,15.995,33.508,17.45,34.174C19.789,35.249,22.403,35.582,24.938,35.127C27.474,34.672,29.809,33.452,31.63,31.631C33.452,29.81,34.672,27.474,35.126,24.939C35.581,22.403,35.248,19.789,34.173,17.449C33.505,15.997,33.584,14.54,34.314,13.81Z"/>
</g>
  <g id="Black-M" transform="matrix(1.0,0.0,0.0,1.0,2899.45001953125,1055.7514189453125)">  <path stroke-linecap="round" stroke-opacity="1" fill-opacity="1" stroke-linejoin="round" stroke-width="2px" fill="#000000" stroke="none" stroke-miterlimit="4" stroke-dasharray="none" fill-rule="nonzero" d="M20.974,5.08C17.734,8.32,17.481,12.979,19.263,16.851C19.416,17.185,19.464,17.563,19.398,17.929C19.333,18.294,19.157,18.632,18.894,18.894C18.631,19.157,18.294,19.333,17.928,19.399C17.562,19.465,17.185,19.417,16.847,19.261C12.969,17.485,8.319,17.735,5.079,20.974L3.359,22.695C1.592,24.463,0.599,26.859,0.599,29.358C0.599,31.857,1.592,34.254,3.359,36.021L34.438,67.1C36.206,68.868,38.602,69.86,41.101,69.86C43.6,69.86,45.997,68.868,47.765,67.101L49.485,65.38C52.725,62.14,52.978,57.481,51.196,53.609C51.043,53.275,50.995,52.897,51.061,52.532C51.126,52.165,51.302,51.829,51.565,51.566C51.828,51.303,52.165,51.126,52.531,51.061C52.897,50.995,53.274,51.043,53.612,51.199C57.49,52.975,62.14,52.725,65.38,49.486L67.1,47.765C68.867,45.998,69.86,43.601,69.86,41.102C69.86,38.602,68.867,36.206,67.1,34.438L36.021,3.359C34.254,1.592,31.857,0.6,29.358,0.6C26.859,0.6,24.462,1.592,22.695,3.359L20.974,5.08ZM30.15,14.256L31.87,12.535C31.203,13.202,30.3,13.576,29.358,13.576C28.416,13.576,27.512,13.202,26.846,12.536L57.924,43.614C57.258,42.947,56.884,42.044,56.884,41.102C56.884,40.16,57.258,39.256,57.924,38.589L56.204,40.31C56.854,39.66,57.644,39.341,58.331,39.304C58.653,39.287,58.861,39.33,59.023,39.404C56.283,38.145,53.216,37.755,50.241,38.288C47.267,38.822,44.526,40.253,42.39,42.39C40.253,44.526,38.821,47.267,38.288,50.242C37.755,53.216,38.145,56.283,39.406,59.029C39.331,58.866,39.287,58.654,39.305,58.328C39.342,57.641,39.661,56.853,40.309,56.204L38.589,57.925C39.255,57.258,40.159,56.884,41.101,56.884C42.043,56.884,42.946,57.258,43.612,57.924L12.535,26.846C13.201,27.513,13.575,28.416,13.575,29.358C13.575,30.3,13.201,31.204,12.535,31.87L14.255,30.15C13.605,30.8,12.815,31.119,12.128,31.156C11.806,31.173,11.598,31.13,11.436,31.056C14.176,32.315,17.243,32.705,20.218,32.172C23.192,31.638,25.933,30.207,28.07,28.07C30.207,25.933,31.638,23.193,32.171,20.218C32.705,17.243,32.314,14.177,31.053,11.431C31.128,11.594,31.172,11.806,31.154,12.132C31.117,12.819,30.798,13.607,30.15,14.256Z"/>
</g>
  <g id="Heavy-M" transform="matrix(1.0,0.0,0.0,1.0,2602.74001953125,1055.7514189453125)">  <path stroke="none" stroke-width="2px" fill-opacity="1" stroke-linejoin="round" fill-rule="nonzero" stroke-dasharray="none" stroke-opacity="1" stroke-miterlimit="4" fill="#000000" stroke-linecap="round" d="M21.476,5.582C18.475,8.584,18.239,12.927,19.908,16.554C20.122,17.021,20.189,17.545,20.098,18.054C20.007,18.563,19.762,19.031,19.396,19.397C19.031,19.762,18.562,20.007,18.053,20.098C17.545,20.189,17.02,20.123,16.55,19.907C12.918,18.243,8.582,18.476,5.582,21.477L3.861,23.197C2.227,24.832,1.31,27.048,1.31,29.358C1.31,31.669,2.227,33.885,3.861,35.519L34.94,66.598C36.575,68.232,38.791,69.15,41.101,69.15C43.412,69.15,45.628,68.232,47.262,66.598L48.983,64.878C51.984,61.876,52.22,57.533,50.551,53.906C50.337,53.44,50.27,52.915,50.361,52.406C50.453,51.897,50.697,51.429,51.062,51.064C51.428,50.698,51.897,50.453,52.406,50.362C52.914,50.27,53.439,50.337,53.908,50.553C57.541,52.217,61.877,51.984,64.877,48.983L66.598,47.262C68.232,45.629,69.149,43.412,69.149,41.102C69.149,38.791,68.232,36.575,66.598,34.941L35.519,3.862C33.885,2.228,31.668,1.31,29.358,1.31C27.047,1.31,24.831,2.228,23.197,3.861L21.476,5.582ZM29.647,13.753L31.368,12.033C30.834,12.566,30.111,12.865,29.358,12.865C28.604,12.865,27.881,12.566,27.348,12.033L58.427,43.111C57.893,42.578,57.594,41.855,57.594,41.102C57.594,40.348,57.893,39.625,58.427,39.092L56.706,40.813C57.226,40.293,57.849,40.041,58.369,40.013C58.572,40.003,58.666,40.022,58.727,40.05C56.118,38.852,53.199,38.48,50.367,38.987C47.535,39.495,44.926,40.858,42.892,42.892C40.858,44.926,39.495,47.535,38.987,50.367C38.48,53.199,38.851,56.118,40.052,58.732C40.023,58.671,40.003,58.573,40.014,58.367C40.042,57.847,40.294,57.224,40.812,56.707L39.091,58.427C39.624,57.894,40.347,57.595,41.101,57.595C41.855,57.595,42.577,57.894,43.11,58.426L12.032,27.348C12.566,27.882,12.865,28.605,12.865,29.358C12.865,30.112,12.566,30.835,12.033,31.367L13.753,29.648C13.234,30.167,12.61,30.418,12.09,30.446C11.887,30.457,11.793,30.438,11.732,30.41C14.341,31.608,17.261,31.98,20.092,31.472C22.924,30.965,25.533,29.602,27.567,27.568C29.602,25.533,30.964,22.925,31.472,20.093C31.98,17.261,31.608,14.341,30.407,11.727C30.435,11.789,30.456,11.887,30.445,12.093C30.417,12.613,30.165,13.236,29.647,13.753Z"/>
</g>
  <g id="Bold-M" transform="matrix(1.0,0.0,0.0,1.0,2306.0300195312498,1055.7514189453125)">  <path stroke="none" stroke-miterlimit="4" fill-opacity="1" stroke-dasharray="none" fill-rule="nonzero" stroke-linecap="round" stroke-opacity="1" stroke-width="2px" fill="#000000" stroke-linejoin="round" d="M21.979,6.085C19.216,8.847,18.997,12.876,20.553,16.257C20.828,16.856,20.914,17.528,20.797,18.179C20.68,18.831,20.367,19.431,19.899,19.899C19.431,20.367,18.83,20.681,18.179,20.798C17.527,20.914,16.855,20.829,16.254,20.553C12.867,19.001,8.846,19.217,6.084,21.979L4.364,23.7C2.863,25.201,2.02,27.236,2.02,29.358C2.02,31.481,2.863,33.516,4.363,35.017L35.442,66.096C36.944,67.597,38.979,68.44,41.101,68.44C43.223,68.44,45.259,67.597,46.76,66.096L48.48,64.375C51.243,61.613,51.462,57.584,49.906,54.203C49.631,53.604,49.545,52.932,49.662,52.281C49.779,51.629,50.092,51.029,50.56,50.561C51.029,50.093,51.629,49.779,52.28,49.662C52.932,49.545,53.603,49.631,54.205,49.907C57.592,51.459,61.613,51.243,64.375,48.481L66.095,46.76C67.596,45.26,68.439,43.224,68.439,41.102C68.439,38.979,67.596,36.944,66.095,35.443L35.016,4.364C33.515,2.863,31.48,2.02,29.358,2.02C27.236,2.02,25.201,2.863,23.7,4.364L21.979,6.085ZM29.145,13.251L30.865,11.53C30.465,11.931,29.923,12.155,29.358,12.155C28.793,12.155,28.25,11.93,27.851,11.531L58.929,42.609C58.529,42.209,58.304,41.667,58.304,41.102C58.304,40.536,58.529,39.994,58.929,39.594L57.209,41.315C57.597,40.926,58.054,40.742,58.407,40.723C58.491,40.718,58.471,40.714,58.431,40.696C55.953,39.558,53.181,39.205,50.492,39.687C47.803,40.169,45.326,41.463,43.394,43.395C41.463,45.326,40.169,47.803,39.687,50.493C39.204,53.181,39.557,55.953,40.697,58.436C40.716,58.475,40.719,58.491,40.724,58.405C40.743,58.052,40.927,57.596,41.314,57.209L39.594,58.93C39.994,58.53,40.536,58.305,41.101,58.305C41.666,58.305,42.208,58.529,42.608,58.929L11.53,27.851C11.93,28.251,12.155,28.793,12.155,29.358C12.155,29.924,11.93,30.466,11.531,30.865L13.25,29.145C12.862,29.534,12.405,29.718,12.052,29.737C11.968,29.742,11.988,29.746,12.028,29.764C14.506,30.902,17.278,31.255,19.967,30.773C22.656,30.291,25.133,28.997,27.065,27.065C28.997,25.134,30.291,22.657,30.773,19.967C31.255,17.278,30.902,14.506,29.761,12.024C29.743,11.985,29.74,11.969,29.735,12.055C29.716,12.408,29.532,12.864,29.145,13.251Z"/>
</g>
  <g id="Semibold-M" transform="matrix(1.0,0.0,0.0,1.0,2009.32001953125,1055.7514189453125)">  <path stroke-linejoin="round" stroke-linecap="round" stroke-miterlimit="4" stroke-opacity="1" fill-opacity="1" stroke="none" fill="#000000" fill-rule="nonzero" stroke-dasharray="none" stroke-width="2px" d="M22.481,6.587C19.957,9.111,19.756,12.824,21.199,15.96C21.535,16.691,21.639,17.51,21.496,18.305C21.354,19.099,20.972,19.831,20.401,20.402C19.83,20.972,19.099,21.354,18.304,21.497C17.51,21.639,16.691,21.535,15.957,21.198C12.816,19.759,9.109,19.959,6.587,22.482L4.866,24.202C3.499,25.57,2.73,27.425,2.73,29.358C2.73,31.292,3.499,33.147,4.866,34.514L35.945,65.593C37.313,66.961,39.168,67.729,41.101,67.729C43.035,67.729,44.89,66.961,46.257,65.593L47.978,63.873C50.502,61.349,50.703,57.636,49.26,54.5C48.925,53.769,48.82,52.95,48.963,52.156C49.105,51.361,49.487,50.629,50.058,50.059C50.629,49.488,51.361,49.105,52.155,48.963C52.949,48.821,53.768,48.925,54.502,49.262C57.643,50.701,61.35,50.501,63.873,47.978L65.593,46.258C66.96,44.89,67.728,43.036,67.728,41.102C67.728,39.168,66.96,37.313,65.593,35.945L34.514,4.867C33.146,3.499,31.292,2.731,29.358,2.731C27.424,2.731,25.57,3.499,24.202,4.866L22.481,6.587ZM28.643,12.748L30.363,11.028C30.096,11.295,29.735,11.445,29.358,11.445C28.981,11.445,28.62,11.295,28.353,11.028L59.431,42.107C59.165,41.84,59.015,41.478,59.015,41.102C59.015,40.725,59.165,40.363,59.431,40.097L57.711,41.817C57.969,41.56,58.259,41.442,58.445,41.432C58.409,41.434,58.276,41.407,58.135,41.342C55.789,40.264,53.164,39.93,50.617,40.386C48.071,40.843,45.726,42.068,43.897,43.897C42.068,45.726,40.842,48.071,40.386,50.618C39.929,53.164,40.264,55.789,41.343,58.139C41.408,58.28,41.435,58.41,41.433,58.444C41.443,58.257,41.56,57.968,41.816,57.712L40.096,59.432C40.363,59.165,40.724,59.016,41.101,59.016C41.478,59.016,41.839,59.165,42.105,59.431L11.028,28.353C11.294,28.62,11.444,28.982,11.444,29.358C11.444,29.735,11.294,30.096,11.028,30.363L12.748,28.643C12.491,28.9,12.2,29.018,12.014,29.028C12.05,29.026,12.183,29.053,12.324,29.118C14.671,30.196,17.295,30.53,19.842,30.074C22.388,29.617,24.733,28.392,26.562,26.563C28.392,24.734,29.617,22.388,30.073,19.842C30.53,17.296,30.196,14.671,29.116,12.32C29.051,12.18,29.024,12.05,29.026,12.016C29.016,12.203,28.899,12.492,28.643,12.748Z"/>
</g>
  <g id="Medium-M" transform="matrix(1.0,0.0,0.0,1.0,1712.61001953125,1055.7514189453125)">  <path stroke-opacity="1" fill-rule="nonzero" stroke-dasharray="none" stroke-linecap="round" stroke-miterlimit="4" fill-opacity="1" stroke-linejoin="round" stroke="none" fill="#000000" stroke-width="2px" d="M22.984,7.089C20.699,9.374,20.514,12.772,21.844,15.663C22.241,16.526,22.364,17.493,22.196,18.43C22.028,19.367,21.577,20.231,20.903,20.904C20.23,21.577,19.367,22.028,18.43,22.196C17.492,22.364,16.526,22.241,15.661,21.844C12.765,20.517,9.373,20.7,7.089,22.984L5.369,24.704C4.134,25.939,3.441,27.613,3.441,29.358C3.441,31.104,4.134,32.778,5.368,34.012L36.447,65.091C37.682,66.325,39.356,67.019,41.101,67.019C42.847,67.019,44.521,66.325,45.755,65.091L47.475,63.371C49.76,61.086,49.945,57.688,48.615,54.797C48.218,53.934,48.095,52.967,48.263,52.03C48.431,51.093,48.882,50.229,49.555,49.556C50.229,48.883,51.093,48.432,52.03,48.264C52.967,48.096,53.933,48.219,54.798,48.616C57.694,49.943,61.086,49.76,63.37,47.476L65.091,45.755C66.325,44.521,67.018,42.847,67.018,41.102C67.018,39.356,66.325,37.682,65.09,36.448L34.012,5.369C32.777,4.135,31.103,3.441,29.358,3.441C27.613,3.441,25.939,4.135,24.704,5.369L22.984,7.089ZM28.14,12.246L29.861,10.526C29.727,10.659,29.546,10.734,29.358,10.734C29.169,10.734,28.989,10.659,28.855,10.526L59.934,41.604C59.8,41.471,59.725,41.29,59.725,41.102C59.725,40.913,59.8,40.732,59.934,40.599L58.213,42.32C58.34,42.193,58.464,42.143,58.483,42.142C58.328,42.15,58.081,42.099,57.839,41.988C55.624,40.97,53.146,40.655,50.743,41.085C48.339,41.516,46.126,42.673,44.399,44.399C42.673,46.126,41.516,48.34,41.085,50.743C40.654,53.146,40.97,55.624,41.989,57.843C42.1,58.084,42.151,58.328,42.142,58.482C42.143,58.463,42.193,58.339,42.319,58.214L40.598,59.934C40.732,59.801,40.913,59.726,41.101,59.726C41.29,59.726,41.47,59.801,41.603,59.934L10.525,28.856C10.659,28.989,10.734,29.17,10.734,29.358C10.734,29.547,10.659,29.727,10.526,29.861L12.246,28.141C12.119,28.267,11.995,28.317,11.976,28.318C12.131,28.31,12.378,28.361,12.62,28.472C14.835,29.49,17.313,29.805,19.716,29.374C22.12,28.944,24.333,27.787,26.06,26.061C27.787,24.334,28.943,22.12,29.374,19.717C29.805,17.313,29.489,14.836,28.47,12.617C28.359,12.376,28.308,12.131,28.317,11.978C28.315,11.997,28.266,12.121,28.14,12.246Z"/>
</g>
  <g id="Regular-M" transform="matrix(1.0,0.0,0.0,1.0,1415.9000195312499,1055.7514189453125)">  <path stroke-dasharray="none" stroke-linejoin="round" stroke="none" fill-opacity="1" stroke-opacity="1" stroke-linecap="round" stroke-miterlimit="4" fill-rule="nonzero" stroke-width="2px" fill="#000000" d="M23.486,7.592C21.44,9.638,21.272,12.721,22.49,15.366C22.947,16.362,23.089,17.475,22.895,18.555C22.701,19.635,22.182,20.63,21.406,21.406C20.63,22.182,19.635,22.702,18.555,22.896C17.475,23.089,16.361,22.947,15.364,22.489C12.715,21.275,9.636,21.441,7.591,23.486L5.871,25.207C4.77,26.308,4.151,27.801,4.151,29.358C4.151,30.915,4.77,32.409,5.871,33.51L36.949,64.589C38.051,65.69,39.544,66.308,41.101,66.308C42.658,66.308,44.152,65.69,45.253,64.589L46.973,62.868C49.019,60.822,49.187,57.739,47.969,55.094C47.512,54.098,47.37,52.985,47.564,51.905C47.758,50.824,48.277,49.83,49.053,49.054C49.829,48.278,50.824,47.758,51.904,47.564C52.984,47.371,54.098,47.512,55.095,47.971C57.744,49.185,60.823,49.019,62.868,46.974L64.588,45.253C65.689,44.152,66.308,42.659,66.308,41.102C66.308,39.544,65.689,38.051,64.588,36.95L33.509,5.871C32.408,4.77,30.915,4.152,29.358,4.152C27.801,4.152,26.308,4.77,25.207,5.871L23.486,7.592ZM27.638,11.744L29.358,10.023C29.358,10.024,29.358,10.024,29.358,10.024C29.358,10.024,29.358,10.024,29.358,10.023L60.436,41.102C60.436,41.102,60.436,41.102,60.436,41.102C60.436,41.102,60.436,41.102,60.436,41.101L58.716,42.822C58.645,42.893,58.165,42.919,57.543,42.634C55.459,41.676,53.129,41.38,50.868,41.785C48.608,42.19,46.525,43.278,44.901,44.902C43.278,46.525,42.19,48.608,41.784,50.869C41.379,53.129,41.676,55.459,42.634,57.546C42.919,58.166,42.893,58.644,42.821,58.716L41.101,60.437C41.101,60.437,41.101,60.436,41.101,60.436C41.101,60.436,41.101,60.436,41.101,60.436L10.023,29.358C10.023,29.358,10.023,29.358,10.023,29.358C10.023,29.358,10.023,29.358,10.023,29.358L11.743,27.638C11.814,27.567,12.294,27.541,12.916,27.826C15,28.784,17.33,29.08,19.591,28.675C21.851,28.27,23.934,27.182,25.558,25.558C27.182,23.934,28.269,21.852,28.675,19.591C29.08,17.331,28.783,15,27.825,12.913C27.54,12.294,27.566,11.816,27.638,11.744Z"/>
</g>
  <g id="Light-M" transform="matrix(1.0,0.0,0.0,1.0,1119.19001953125,1055.7514189453125)">  <path stroke-dasharray="none" stroke-opacity="1" fill="#000000" fill-opacity="1" stroke-miterlimit="4" stroke-width="2px" stroke-linecap="round" stroke="none" stroke-linejoin="round" fill-rule="nonzero" d="M23.832,7.938C21.95,9.819,21.795,12.685,22.934,15.162C23.433,16.248,23.588,17.463,23.377,18.642C23.165,19.82,22.598,20.906,21.752,21.752C20.905,22.599,19.82,23.166,18.641,23.377C17.463,23.588,16.248,23.434,15.16,22.934C12.679,21.798,9.818,21.952,7.937,23.832L6.217,25.553C5.208,26.562,4.641,27.931,4.641,29.358C4.641,30.786,5.208,32.154,6.217,33.164L37.295,64.243C38.305,65.252,39.674,65.819,41.101,65.819C42.528,65.819,43.897,65.252,44.907,64.243L46.627,62.522C48.509,60.641,48.664,57.775,47.525,55.298C47.026,54.212,46.871,52.997,47.082,51.819C47.294,50.64,47.861,49.554,48.707,48.708C49.554,47.861,50.64,47.294,51.818,47.083C52.996,46.871,54.211,47.026,55.299,47.526C57.779,48.662,60.641,48.508,62.522,46.628L64.242,44.907C65.251,43.898,65.818,42.529,65.818,41.102C65.818,39.674,65.251,38.305,64.242,37.296L33.163,6.217C32.154,5.208,30.785,4.641,29.358,4.641C27.931,4.641,26.562,5.208,25.553,6.217L23.832,7.938ZM27.292,11.398L29.012,9.677C29.104,9.586,29.228,9.534,29.358,9.534C29.488,9.534,29.612,9.586,29.704,9.677L60.782,40.756C60.874,40.848,60.925,40.972,60.925,41.102C60.925,41.231,60.874,41.356,60.782,41.447L59.062,43.168C58.826,43.403,58.13,43.441,57.339,43.079C55.346,42.163,53.117,41.879,50.954,42.266C48.792,42.654,46.801,43.695,45.247,45.248C43.694,46.801,42.654,48.792,42.266,50.955C41.879,53.117,42.162,55.346,43.079,57.342C43.442,58.13,43.404,58.826,43.167,59.062L41.447,60.783C41.355,60.874,41.231,60.926,41.101,60.926C40.971,60.926,40.847,60.874,40.755,60.782L9.677,29.704C9.585,29.612,9.534,29.488,9.534,29.358C9.534,29.229,9.585,29.104,9.677,29.012L11.397,27.292C11.633,27.057,12.329,27.019,13.119,27.381C15.113,28.297,17.342,28.581,19.505,28.193C21.667,27.806,23.658,26.765,25.212,25.212C26.765,23.659,27.805,21.667,28.193,19.505C28.581,17.343,28.297,15.114,27.38,13.118C27.017,12.33,27.055,11.634,27.292,11.398Z"/>
</g>
  <g id="Thin-M" transform="matrix(1.0,0.0,0.0,1.0,822.48001953125,1055.7514189453125)">  <path fill="#000000" stroke-opacity="1" stroke-dasharray="none" fill-rule="nonzero" stroke-width="2px" stroke-miterlimit="4" stroke="none" stroke-linecap="round" fill-opacity="1" stroke-linejoin="round" d="M24.178,8.284C22.461,10.001,22.317,12.65,23.379,14.957C23.92,16.135,24.087,17.451,23.858,18.728C23.629,20.005,23.015,21.181,22.098,22.098C21.181,23.016,20.004,23.63,18.728,23.859C17.451,24.088,16.134,23.92,14.956,23.379C12.644,22.32,9.999,22.462,8.283,24.178L6.563,25.899C5.645,26.817,5.13,28.061,5.13,29.358C5.13,30.656,5.645,31.9,6.563,32.818L37.641,63.897C38.56,64.814,39.804,65.329,41.101,65.329C42.399,65.329,43.643,64.814,44.561,63.897L46.281,62.176C47.998,60.459,48.142,57.81,47.08,55.503C46.539,54.325,46.372,53.009,46.601,51.732C46.83,50.455,47.444,49.279,48.361,48.362C49.279,47.444,50.455,46.83,51.732,46.601C53.008,46.372,54.325,46.54,55.503,47.081C57.814,48.14,60.46,47.998,62.176,46.282L63.896,44.561C64.814,43.644,65.329,42.399,65.329,41.102C65.329,39.804,64.814,38.56,63.896,37.642L32.817,6.563C31.9,5.646,30.655,5.131,29.358,5.131C28.06,5.131,26.816,5.646,25.899,6.563L24.178,8.284ZM26.946,11.052L28.666,9.331C28.85,9.148,29.098,9.045,29.358,9.045C29.617,9.045,29.866,9.148,30.05,9.331L61.128,40.41C61.311,40.593,61.414,40.842,61.414,41.102C61.414,41.361,61.311,41.61,61.128,41.793L59.408,43.514C59.008,43.914,58.095,43.963,57.136,43.523C55.232,42.649,53.105,42.378,51.041,42.748C48.977,43.118,47.076,44.111,45.593,45.594C44.111,47.076,43.118,48.977,42.748,51.041C42.378,53.105,42.649,55.233,43.524,57.138C43.964,58.095,43.914,59.007,43.513,59.408L41.793,61.129C41.609,61.312,41.361,61.415,41.101,61.415C40.842,61.415,40.593,61.312,40.409,61.128L9.331,30.05C9.148,29.867,9.044,29.618,9.044,29.358C9.044,29.099,9.148,28.85,9.331,28.666L11.051,26.946C11.451,26.546,12.364,26.497,13.323,26.936C15.227,27.811,17.354,28.082,19.418,27.712C21.482,27.342,23.383,26.349,24.866,24.866C26.348,23.384,27.341,21.483,27.711,19.419C28.081,17.355,27.81,15.227,26.935,13.322C26.495,12.365,26.545,11.453,26.946,11.052Z"/>
</g>
  <g id="Ultralight-M" transform="matrix(1.0,0.0,0.0,1.0,525.77001953125,1055.7514189453125)">  <path stroke-linejoin="round" stroke-width="2px" stroke-linecap="round" fill="#000000" stroke="none" stroke-dasharray="none" stroke-miterlimit="4" fill-opacity="1" fill-rule="nonzero" stroke-opacity="1" d="M24.524,8.63C22.971,10.182,22.839,12.614,23.823,14.753C24.406,16.021,24.587,17.439,24.34,18.814C24.093,20.19,23.432,21.456,22.444,22.444C21.456,23.432,20.189,24.094,18.814,24.34C17.439,24.587,16.021,24.406,14.751,23.823C12.609,22.842,10.181,22.973,8.629,24.524L6.909,26.245C6.083,27.071,5.619,28.191,5.619,29.358C5.619,30.526,6.083,31.646,6.909,32.472L37.987,63.551C38.814,64.376,39.934,64.84,41.101,64.84C42.269,64.84,43.389,64.376,44.215,63.551L45.935,61.83C47.488,60.278,47.62,57.846,46.636,55.707C46.053,54.439,45.873,53.021,46.119,51.646C46.366,50.27,47.027,49.003,48.015,48.016C49.003,47.028,50.27,46.366,51.645,46.119C53.02,45.873,54.438,46.053,55.708,46.637C57.85,47.618,60.278,47.487,61.83,45.936L63.55,44.215C64.376,43.389,64.84,42.27,64.84,41.102C64.84,39.934,64.376,38.814,63.55,37.988L32.471,6.909C31.646,6.084,30.526,5.62,29.358,5.62C28.19,5.62,27.07,6.084,26.244,6.909L24.524,8.63ZM26.6,10.706L28.32,8.985C28.595,8.71,28.969,8.556,29.358,8.556C29.747,8.556,30.12,8.71,30.395,8.985L61.474,40.064C61.749,40.339,61.904,40.712,61.904,41.102C61.904,41.491,61.749,41.864,61.474,42.139L59.754,43.86C59.189,44.424,58.06,44.485,56.932,43.968C55.119,43.135,53.093,42.877,51.127,43.23C49.162,43.582,47.351,44.528,45.939,45.94C44.527,47.351,43.582,49.162,43.229,51.128C42.877,53.093,43.135,55.119,43.968,56.934C44.486,58.059,44.425,59.189,43.859,59.754L42.139,61.475C41.864,61.75,41.49,61.904,41.101,61.904C40.712,61.904,40.339,61.75,40.063,61.474L8.985,30.396C8.71,30.121,8.555,29.748,8.555,29.358C8.555,28.969,8.71,28.596,8.985,28.32L10.705,26.6C11.27,26.036,12.399,25.975,13.527,26.492C15.34,27.325,17.366,27.583,19.332,27.23C21.297,26.878,23.108,25.932,24.52,24.52C25.932,23.108,26.877,21.298,27.23,19.332C27.582,17.367,27.324,15.341,26.491,13.526C25.973,12.401,26.034,11.271,26.6,10.706Z"/>
</g>
  <g id="Black-S" transform="matrix(1.0,0.0,0.0,1.0,2907.0949252929686,633.350455272461)">  <path stroke-linecap="round" stroke-opacity="1" fill-opacity="1" stroke-linejoin="round" stroke-width="2px" fill="#000000" stroke="none" stroke-miterlimit="4" stroke-dasharray="none" fill-rule="nonzero" d="M16.423,3.978C13.885,6.515,13.687,10.162,15.083,13.194C15.203,13.456,15.24,13.751,15.189,14.038C15.138,14.325,15,14.588,14.794,14.794C14.588,15,14.324,15.138,14.038,15.189C13.751,15.241,13.456,15.203,13.191,15.082C10.155,13.69,6.514,13.886,3.977,16.423L2.63,17.77C1.246,19.154,0.469,21.031,0.469,22.988C0.469,24.944,1.246,26.821,2.63,28.205L26.965,52.54C28.349,53.924,30.226,54.701,32.182,54.701C34.139,54.701,36.016,53.924,37.4,52.54L38.747,51.193C41.284,48.655,41.482,45.008,40.087,41.976C39.967,41.714,39.929,41.419,39.98,41.132C40.032,40.845,40.17,40.582,40.375,40.376C40.581,40.17,40.845,40.032,41.132,39.981C41.418,39.929,41.714,39.967,41.978,40.088C45.015,41.48,48.656,41.284,51.192,38.747L52.54,37.4C53.923,36.016,54.7,34.139,54.7,32.183C54.7,30.226,53.923,28.349,52.539,26.965L28.205,2.63C26.821,1.247,24.944,0.469,22.987,0.469C21.031,0.469,19.154,1.247,17.77,2.63L16.423,3.978ZM23.607,11.162L24.954,9.815C24.432,10.337,23.725,10.63,22.987,10.63C22.25,10.63,21.542,10.337,21.02,9.815L45.355,34.15C44.833,33.628,44.54,32.92,44.54,32.183C44.54,31.445,44.833,30.737,45.355,30.216L44.008,31.563C44.517,31.054,45.135,30.804,45.673,30.775C45.925,30.761,46.088,30.795,46.215,30.854C44.07,29.868,41.668,29.562,39.339,29.98C37.01,30.397,34.864,31.518,33.191,33.191C31.518,34.864,30.397,37.01,29.979,39.339C29.562,41.668,29.868,44.069,30.855,46.22C30.796,46.092,30.762,45.926,30.776,45.671C30.805,45.133,31.054,44.516,31.562,44.008L30.215,45.355C30.737,44.833,31.445,44.54,32.182,44.54C32.92,44.54,33.627,44.833,34.148,45.354L9.815,21.021C10.337,21.543,10.63,22.25,10.63,22.988C10.63,23.725,10.337,24.432,9.815,24.954L11.162,23.608C10.653,24.116,10.034,24.366,9.497,24.395C9.244,24.409,9.081,24.375,8.954,24.317C11.1,25.302,13.501,25.608,15.831,25.19C18.16,24.773,20.305,23.652,21.978,21.979C23.652,20.306,24.773,18.16,25.19,15.831C25.608,13.502,25.302,11.1,24.314,8.95C24.373,9.078,24.408,9.244,24.394,9.499C24.365,10.037,24.115,10.654,23.607,11.162Z"/>
</g>
  <g id="Heavy-S" transform="matrix(1.0,0.0,0.0,1.0,2610.3849252929685,633.350455272461)">  <path stroke="none" stroke-width="2px" fill-opacity="1" stroke-linejoin="round" fill-rule="nonzero" stroke-dasharray="none" stroke-opacity="1" stroke-miterlimit="4" fill="#000000" stroke-linecap="round" d="M16.816,4.371C14.466,6.721,14.281,10.122,15.588,12.962C15.756,13.327,15.808,13.738,15.737,14.136C15.665,14.535,15.473,14.901,15.187,15.188C14.901,15.474,14.534,15.666,14.136,15.737C13.737,15.808,13.327,15.756,12.959,15.587C10.115,14.284,6.72,14.467,4.371,16.816L3.023,18.163C1.744,19.443,1.025,21.178,1.025,22.988C1.025,24.797,1.744,26.532,3.023,27.811L27.358,52.146C28.638,53.426,30.373,54.144,32.182,54.144C33.991,54.144,35.727,53.426,37.006,52.146L38.353,50.799C40.703,48.449,40.888,45.048,39.581,42.208C39.414,41.843,39.361,41.432,39.433,41.034C39.504,40.635,39.696,40.269,39.982,39.983C40.268,39.696,40.635,39.505,41.034,39.433C41.432,39.362,41.842,39.414,42.21,39.583C45.054,40.886,48.45,40.703,50.799,38.354L52.146,37.006C53.425,35.727,54.144,33.992,54.144,32.183C54.144,30.373,53.425,28.638,52.146,27.358L27.811,3.024C26.532,1.744,24.796,1.026,22.987,1.026C21.178,1.026,19.443,1.744,18.164,3.023L16.816,4.371ZM23.214,10.769L24.561,9.422C24.143,9.839,23.577,10.074,22.987,10.074C22.397,10.074,21.831,9.839,21.414,9.422L45.748,33.756C45.331,33.339,45.096,32.773,45.096,32.183C45.096,31.593,45.331,31.026,45.748,30.609L44.401,31.956C44.808,31.55,45.296,31.352,45.703,31.331C45.862,31.322,45.935,31.337,45.983,31.359C43.941,30.421,41.655,30.13,39.437,30.527C37.22,30.925,35.177,31.992,33.584,33.585C31.992,35.177,30.925,37.22,30.527,39.438C30.129,41.655,30.42,43.94,31.361,45.987C31.338,45.939,31.322,45.862,31.331,45.701C31.353,45.294,31.55,44.807,31.955,44.401L30.608,45.748C31.026,45.331,31.592,45.097,32.182,45.097C32.772,45.097,33.338,45.331,33.755,45.748L9.421,21.414C9.839,21.832,10.073,22.398,10.073,22.988C10.073,23.578,9.839,24.143,9.422,24.561L10.768,23.214C10.362,23.621,9.874,23.818,9.467,23.84C9.308,23.848,9.234,23.833,9.186,23.811C11.229,24.749,13.515,25.04,15.732,24.643C17.95,24.245,19.992,23.178,21.585,21.586C23.178,19.993,24.245,17.95,24.643,15.733C25.04,13.515,24.749,11.229,23.809,9.182C23.831,9.231,23.847,9.308,23.838,9.469C23.816,9.876,23.619,10.363,23.214,10.769Z"/>
</g>
  <g id="Bold-S" transform="matrix(1.0,0.0,0.0,1.0,2313.6749252929685,633.350455272461)">  <path stroke="none" stroke-miterlimit="4" fill-opacity="1" stroke-dasharray="none" fill-rule="nonzero" stroke-linecap="round" stroke-opacity="1" stroke-width="2px" fill="#000000" stroke-linejoin="round" d="M17.209,4.764C15.046,6.927,14.875,10.082,16.093,12.729C16.309,13.198,16.376,13.724,16.284,14.234C16.193,14.745,15.947,15.215,15.581,15.581C15.214,15.948,14.744,16.193,14.234,16.285C13.724,16.376,13.198,16.309,12.727,16.093C10.075,14.878,6.926,15.047,4.764,17.21L3.417,18.557C2.242,19.732,1.582,21.326,1.582,22.988C1.582,24.649,2.242,26.243,3.417,27.418L27.751,51.753C28.927,52.928,30.521,53.588,32.182,53.588C33.844,53.588,35.438,52.928,36.613,51.753L37.96,50.406C40.123,48.243,40.294,45.089,39.076,42.441C38.861,41.972,38.794,41.446,38.885,40.936C38.977,40.425,39.222,39.956,39.589,39.589C39.955,39.223,40.425,38.977,40.936,38.886C41.446,38.794,41.971,38.861,42.442,39.077C45.094,40.292,48.243,40.123,50.406,37.96L51.753,36.613C52.928,35.438,53.588,33.844,53.588,32.183C53.588,30.521,52.928,28.927,51.753,27.752L27.418,3.417C26.243,2.242,24.649,1.582,22.987,1.582C21.326,1.582,19.732,2.242,18.557,3.417L17.209,4.764ZM22.82,10.375L24.168,9.028C23.854,9.342,23.43,9.517,22.987,9.517C22.545,9.517,22.12,9.342,21.807,9.029L46.141,33.363C45.828,33.05,45.652,32.625,45.652,32.183C45.652,31.74,45.828,31.315,46.141,31.002L44.794,32.35C45.099,32.045,45.456,31.901,45.733,31.886C45.798,31.883,45.783,31.879,45.752,31.865C43.812,30.974,41.641,30.697,39.535,31.075C37.43,31.452,35.49,32.465,33.978,33.978C32.465,35.49,31.452,37.43,31.075,39.536C30.697,41.641,30.973,43.812,31.866,45.755C31.88,45.786,31.883,45.799,31.887,45.731C31.902,45.455,32.046,45.098,32.349,44.795L31.002,46.142C31.315,45.829,31.74,45.653,32.182,45.653C32.625,45.653,33.049,45.829,33.362,46.141L9.028,21.807C9.341,22.121,9.517,22.545,9.517,22.988C9.517,23.43,9.341,23.855,9.028,24.167L10.375,22.821C10.071,23.125,9.713,23.269,9.437,23.284C9.371,23.288,9.387,23.291,9.418,23.305C11.358,24.196,13.529,24.473,15.634,24.095C17.74,23.718,19.679,22.705,21.192,21.192C22.704,19.68,23.718,17.74,24.095,15.635C24.472,13.529,24.196,11.358,23.303,9.415C23.289,9.384,23.286,9.372,23.283,9.439C23.268,9.715,23.123,10.072,22.82,10.375Z"/>
</g>
  <g id="Semibold-S" transform="matrix(1.0,0.0,0.0,1.0,2016.9649252929687,633.350455272461)">  <path stroke-linejoin="round" stroke-linecap="round" stroke-miterlimit="4" stroke-opacity="1" fill-opacity="1" stroke="none" fill="#000000" fill-rule="nonzero" stroke-dasharray="none" stroke-width="2px" d="M17.603,5.158C15.627,7.134,15.469,10.041,16.599,12.497C16.862,13.069,16.943,13.71,16.832,14.332C16.72,14.955,16.421,15.528,15.974,15.974C15.527,16.421,14.954,16.721,14.332,16.832C13.71,16.944,13.069,16.862,12.495,16.598C10.035,15.471,7.133,15.628,5.157,17.603L3.81,18.95C2.739,20.021,2.138,21.473,2.138,22.988C2.138,24.502,2.739,25.954,3.81,27.025L28.145,51.36C29.216,52.431,30.668,53.032,32.182,53.032C33.696,53.032,35.149,52.43,36.22,51.36L37.567,50.013C39.543,48.036,39.701,45.129,38.571,42.673C38.308,42.101,38.226,41.46,38.338,40.838C38.449,40.215,38.749,39.643,39.195,39.196C39.642,38.749,40.215,38.449,40.837,38.338C41.459,38.226,42.1,38.308,42.675,38.572C45.134,39.699,48.037,39.542,50.012,37.567L51.359,36.22C52.43,35.149,53.031,33.697,53.031,32.183C53.031,30.668,52.43,29.216,51.359,28.145L27.025,3.811C25.954,2.74,24.501,2.138,22.987,2.138C21.473,2.138,20.021,2.74,18.95,3.81L17.603,5.158ZM22.427,9.982L23.774,8.635C23.565,8.844,23.282,8.961,22.987,8.961C22.692,8.961,22.409,8.844,22.2,8.635L46.535,32.97C46.326,32.761,46.209,32.478,46.209,32.183C46.209,31.888,46.326,31.604,46.535,31.396L45.188,32.743C45.389,32.541,45.617,32.449,45.763,32.442C45.734,32.443,45.63,32.421,45.52,32.371C43.683,31.527,41.627,31.265,39.633,31.622C37.64,31.98,35.803,32.939,34.371,34.371C32.939,35.803,31.98,37.64,31.622,39.634C31.265,41.627,31.526,43.683,32.372,45.523C32.422,45.633,32.443,45.735,32.442,45.761C32.45,45.615,32.542,45.389,32.742,45.188L31.395,46.535C31.604,46.326,31.887,46.209,32.182,46.209C32.477,46.209,32.76,46.326,32.968,46.535L8.635,22.201C8.843,22.41,8.961,22.693,8.961,22.988C8.961,23.283,8.844,23.566,8.635,23.774L9.982,22.427C9.78,22.629,9.553,22.721,9.407,22.729C9.435,22.727,9.539,22.749,9.65,22.799C11.487,23.643,13.542,23.905,15.536,23.548C17.53,23.19,19.366,22.231,20.798,20.799C22.231,19.367,23.19,17.53,23.547,15.536C23.905,13.543,23.643,11.487,22.798,9.647C22.747,9.537,22.726,9.435,22.727,9.409C22.719,9.555,22.628,9.781,22.427,9.982Z"/>
</g>
  <g id="Medium-S" transform="matrix(1.0,0.0,0.0,1.0,1720.2549252929687,633.350455272461)">  <path stroke-opacity="1" fill-rule="nonzero" stroke-dasharray="none" stroke-linecap="round" stroke-miterlimit="4" fill-opacity="1" stroke-linejoin="round" stroke="none" fill="#000000" stroke-width="2px" d="M17.996,5.551C16.207,7.34,16.062,10.001,17.104,12.264C17.415,12.94,17.511,13.697,17.379,14.431C17.248,15.165,16.895,15.841,16.367,16.368C15.84,16.895,15.164,17.248,14.43,17.38C13.696,17.511,12.94,17.415,12.262,17.104C9.995,16.065,7.339,16.208,5.551,17.996L4.204,19.344C3.237,20.31,2.694,21.621,2.694,22.988C2.694,24.354,3.237,25.665,4.203,26.631L28.538,50.966C29.505,51.933,30.816,52.476,32.182,52.476C33.549,52.476,34.86,51.933,35.826,50.966L37.173,49.619C38.962,47.83,39.107,45.169,38.065,42.906C37.755,42.23,37.659,41.473,37.79,40.74C37.922,40.005,38.275,39.33,38.802,38.803C39.329,38.275,40.005,37.922,40.739,37.79C41.473,37.659,42.229,37.755,42.907,38.066C45.174,39.105,47.831,38.962,49.619,37.174L50.966,35.826C51.932,34.86,52.475,33.549,52.475,32.183C52.475,30.816,51.932,29.505,50.966,28.539L26.631,4.204C25.665,3.237,24.354,2.695,22.987,2.695C21.621,2.695,20.31,3.237,19.343,4.204L17.996,5.551ZM22.034,9.589L23.381,8.242C23.276,8.346,23.135,8.405,22.987,8.405C22.84,8.405,22.698,8.346,22.594,8.242L46.928,32.576C46.824,32.472,46.765,32.33,46.765,32.183C46.765,32.035,46.824,31.893,46.928,31.789L45.581,33.136C45.68,33.037,45.777,32.998,45.793,32.997C45.671,33.004,45.477,32.963,45.288,32.877C43.554,32.08,41.614,31.833,39.732,32.17C37.85,32.507,36.116,33.413,34.764,34.765C33.413,36.116,32.507,37.85,32.17,39.732C31.832,41.614,32.079,43.554,32.877,45.291C32.964,45.48,33.004,45.671,32.998,45.792C32.998,45.776,33.037,45.68,33.136,45.582L31.789,46.929C31.893,46.824,32.035,46.765,32.182,46.765C32.33,46.765,32.471,46.824,32.575,46.928L8.241,22.594C8.346,22.699,8.404,22.84,8.404,22.988C8.404,23.135,8.346,23.277,8.242,23.381L9.588,22.034C9.489,22.133,9.392,22.172,9.377,22.173C9.499,22.167,9.692,22.207,9.881,22.294C11.616,23.091,13.556,23.338,15.438,23C17.32,22.663,19.053,21.757,20.405,20.405C21.757,19.054,22.662,17.32,23,15.438C23.337,13.556,23.09,11.616,22.292,9.879C22.205,9.69,22.165,9.499,22.172,9.379C22.171,9.394,22.132,9.49,22.034,9.589Z"/>
</g>
  <g id="Regular-S" transform="matrix(1.0,0.0,0.0,1.0,1423.5449252929686,633.350455272461)">  <path stroke-dasharray="none" stroke-linejoin="round" stroke="none" fill-opacity="1" stroke-opacity="1" stroke-linecap="round" stroke-miterlimit="4" fill-rule="nonzero" stroke-width="2px" fill="#000000" d="M18.389,5.944C16.787,7.546,16.656,9.96,17.609,12.032C17.967,12.811,18.078,13.683,17.927,14.529C17.775,15.375,17.368,16.154,16.761,16.761C16.153,17.369,15.374,17.776,14.528,17.927C13.683,18.079,12.811,17.968,12.03,17.609C9.955,16.659,7.545,16.788,5.944,18.39L4.597,19.737C3.735,20.599,3.251,21.768,3.251,22.988C3.251,24.207,3.735,25.376,4.597,26.238L28.931,50.573C29.794,51.435,30.963,51.919,32.182,51.919C33.401,51.919,34.571,51.435,35.433,50.573L36.78,49.226C38.382,47.624,38.513,45.21,37.56,43.138C37.202,42.359,37.091,41.487,37.243,40.642C37.394,39.795,37.801,39.016,38.409,38.409C39.016,37.801,39.795,37.394,40.641,37.243C41.487,37.091,42.358,37.202,43.139,37.561C45.214,38.512,47.624,38.382,49.226,36.78L50.573,35.433C51.435,34.571,51.919,33.402,51.919,32.183C51.919,30.963,51.435,29.794,50.572,28.932L26.238,4.597C25.376,3.735,24.206,3.251,22.987,3.251C21.768,3.251,20.599,3.735,19.737,4.597L18.389,5.944ZM21.64,9.195L22.987,7.848C22.987,7.848,22.987,7.848,22.987,7.848C22.987,7.848,22.987,7.848,22.987,7.848L47.321,32.183C47.321,32.183,47.321,32.183,47.321,32.183C47.321,32.183,47.321,32.182,47.321,32.182L45.975,33.53C45.919,33.585,45.543,33.605,45.056,33.382C43.425,32.633,41.6,32.4,39.83,32.717C38.06,33.035,36.429,33.887,35.158,35.158C33.886,36.429,33.035,38.06,32.717,39.83C32.4,41.6,32.632,43.425,33.383,45.059C33.606,45.544,33.586,45.918,33.529,45.975L32.182,47.322C32.182,47.322,32.182,47.322,32.182,47.322C32.182,47.322,32.182,47.322,32.182,47.322L7.848,22.987C7.848,22.988,7.848,22.988,7.848,22.988C7.848,22.988,7.848,22.988,7.848,22.988L9.195,21.641C9.251,21.585,9.626,21.565,10.113,21.788C11.745,22.538,13.57,22.77,15.34,22.453C17.11,22.135,18.74,21.284,20.012,20.012C21.283,18.74,22.135,17.11,22.452,15.34C22.77,13.57,22.537,11.745,21.787,10.111C21.563,9.626,21.584,9.252,21.64,9.195Z"/>
</g>
  <g id="Light-S" transform="matrix(1.0,0.0,0.0,1.0,1126.8349252929688,633.350455272461)">  <path stroke-dasharray="none" stroke-opacity="1" fill="#000000" fill-opacity="1" stroke-miterlimit="4" stroke-width="2px" stroke-linecap="round" stroke="none" stroke-linejoin="round" fill-rule="nonzero" d="M18.66,6.215C17.187,7.689,17.065,9.932,17.957,11.872C18.348,12.722,18.469,13.674,18.304,14.596C18.139,15.519,17.695,16.369,17.032,17.032C16.369,17.695,15.519,18.139,14.596,18.304C13.673,18.47,12.722,18.349,11.87,17.957C9.928,17.067,7.687,17.188,6.215,18.661L4.868,20.008C4.078,20.798,3.634,21.87,3.634,22.988C3.634,24.105,4.078,25.177,4.868,25.967L29.202,50.302C29.993,51.092,31.065,51.536,32.182,51.536C33.3,51.536,34.372,51.092,35.162,50.302L36.509,48.955C37.982,47.482,38.104,45.238,37.212,43.299C36.821,42.448,36.7,41.496,36.866,40.574C37.031,39.651,37.475,38.801,38.138,38.138C38.801,37.475,39.651,37.031,40.573,36.866C41.496,36.7,42.447,36.821,43.299,37.213C45.241,38.103,47.482,37.982,48.955,36.509L50.302,35.162C51.092,34.372,51.536,33.3,51.536,32.183C51.536,31.065,51.092,29.993,50.302,29.203L25.967,4.868C25.177,4.078,24.105,3.634,22.987,3.634C21.87,3.634,20.798,4.078,20.008,4.868L18.66,6.215ZM21.369,8.924L22.717,7.577C22.788,7.506,22.886,7.465,22.987,7.465C23.089,7.465,23.186,7.506,23.258,7.577L47.592,31.912C47.664,31.984,47.704,32.081,47.704,32.183C47.704,32.284,47.664,32.382,47.592,32.453L46.245,33.8C46.061,33.985,45.516,34.014,44.897,33.731C43.336,33.013,41.59,32.791,39.897,33.095C38.204,33.398,36.645,34.213,35.429,35.429C34.213,36.645,33.398,38.204,33.094,39.898C32.791,41.59,33.013,43.336,33.731,44.899C34.015,45.516,33.985,46.06,33.8,46.246L32.453,47.593C32.381,47.665,32.284,47.705,32.182,47.705C32.081,47.705,31.983,47.664,31.911,47.592L7.577,23.258C7.505,23.187,7.465,23.089,7.465,22.988C7.465,22.886,7.505,22.789,7.577,22.717L8.924,21.37C9.108,21.185,9.654,21.156,10.273,21.44C11.834,22.157,13.579,22.379,15.272,22.075C16.965,21.772,18.525,20.957,19.741,19.741C20.957,18.525,21.772,16.965,22.075,15.272C22.379,13.579,22.156,11.834,21.438,10.271C21.155,9.654,21.184,9.11,21.369,8.924Z"/>
</g>
  <g id="Thin-S" transform="matrix(1.0,0.0,0.0,1.0,830.1249252929688,633.350455272461)">  <path fill="#000000" stroke-opacity="1" stroke-dasharray="none" fill-rule="nonzero" stroke-width="2px" stroke-miterlimit="4" stroke="none" stroke-linecap="round" fill-opacity="1" stroke-linejoin="round" d="M18.931,6.486C17.587,7.831,17.474,9.905,18.306,11.711C18.729,12.634,18.86,13.664,18.681,14.664C18.502,15.664,18.021,16.585,17.303,17.303C16.584,18.021,15.663,18.502,14.664,18.681C13.664,18.861,12.633,18.729,11.71,18.305C9.901,17.476,7.83,17.588,6.486,18.932L5.139,20.279C4.42,20.997,4.017,21.972,4.017,22.988C4.017,24.004,4.42,24.978,5.139,25.696L29.473,50.031C30.192,50.75,31.166,51.153,32.182,51.153C33.198,51.153,34.173,50.749,34.891,50.031L36.238,48.684C37.583,47.339,37.695,45.265,36.864,43.459C36.44,42.537,36.309,41.506,36.488,40.506C36.668,39.506,37.149,38.585,37.867,37.867C38.585,37.149,39.506,36.668,40.506,36.489C41.506,36.309,42.536,36.441,43.459,36.865C45.269,37.694,47.34,37.582,48.684,36.239L50.031,34.891C50.749,34.173,51.153,33.199,51.153,32.183C51.153,31.167,50.749,30.192,50.031,29.474L25.696,5.139C24.977,4.421,24.003,4.017,22.987,4.017C21.971,4.017,20.997,4.421,20.279,5.139L18.931,6.486ZM21.099,8.653L22.446,7.306C22.589,7.163,22.784,7.082,22.987,7.082C23.19,7.082,23.385,7.163,23.529,7.306L47.863,31.641C48.007,31.785,48.088,31.979,48.088,32.183C48.088,32.386,48.007,32.581,47.863,32.724L46.516,34.071C46.203,34.385,45.488,34.423,44.737,34.079C43.247,33.394,41.581,33.182,39.965,33.472C38.349,33.761,36.861,34.539,35.7,35.7C34.539,36.861,33.761,38.349,33.471,39.965C33.182,41.581,33.394,43.247,34.079,44.739C34.424,45.488,34.385,46.203,34.071,46.517L32.724,47.864C32.58,48.007,32.385,48.088,32.182,48.088C31.979,48.088,31.784,48.007,31.64,47.863L7.306,23.529C7.163,23.386,7.082,23.191,7.082,22.988C7.082,22.784,7.163,22.59,7.306,22.446L8.653,21.099C8.966,20.786,9.681,20.747,10.432,21.091C11.923,21.776,13.589,21.988,15.205,21.698C16.82,21.409,18.309,20.631,19.47,19.47C20.631,18.309,21.408,16.821,21.698,15.205C21.988,13.589,21.776,11.923,21.09,10.431C20.746,9.682,20.784,8.968,21.099,8.653Z"/>
</g>
  <g id="Ultralight-S" transform="matrix(1.0,0.0,0.0,1.0,533.4149252929687,633.350455272461)">  <path stroke-linejoin="round" stroke-width="2px" stroke-linecap="round" fill="#000000" stroke="none" stroke-dasharray="none" stroke-miterlimit="4" fill-opacity="1" fill-rule="nonzero" stroke-opacity="1" d="M19.202,6.757C17.986,7.973,17.883,9.877,18.654,11.551C19.11,12.545,19.251,13.655,19.058,14.732C18.865,15.808,18.347,16.8,17.574,17.574C16.8,18.347,15.808,18.866,14.731,19.059C13.654,19.252,12.544,19.11,11.55,18.654C9.873,17.885,7.972,17.988,6.757,19.203L5.41,20.55C4.763,21.196,4.4,22.073,4.4,22.988C4.4,23.902,4.763,24.779,5.41,25.425L29.744,49.76C30.391,50.407,31.268,50.77,32.182,50.77C33.097,50.77,33.974,50.407,34.62,49.76L35.967,48.413C37.183,47.197,37.286,45.293,36.516,43.619C36.06,42.626,35.918,41.515,36.111,40.439C36.304,39.362,36.822,38.37,37.596,37.596C38.37,36.823,39.362,36.305,40.438,36.112C41.515,35.918,42.625,36.06,43.619,36.517C45.296,37.285,47.198,37.183,48.413,35.968L49.76,34.62C50.406,33.974,50.769,33.097,50.769,32.183C50.769,31.268,50.406,30.391,49.76,29.745L25.425,5.41C24.778,4.763,23.902,4.4,22.987,4.4C22.073,4.4,21.196,4.763,20.549,5.41L19.202,6.757ZM20.828,8.383L22.175,7.035C22.39,6.82,22.682,6.699,22.987,6.699C23.292,6.699,23.584,6.82,23.8,7.036L48.134,31.37C48.35,31.586,48.471,31.878,48.471,32.183C48.471,32.487,48.35,32.78,48.134,32.995L46.787,34.342C46.345,34.784,45.461,34.832,44.578,34.427C43.158,33.775,41.572,33.573,40.033,33.849C38.494,34.125,37.076,34.865,35.971,35.971C34.865,37.076,34.125,38.494,33.849,40.033C33.573,41.572,33.775,43.158,34.427,44.579C34.833,45.46,34.785,46.345,34.342,46.788L32.995,48.135C32.779,48.35,32.487,48.471,32.182,48.471C31.877,48.471,31.585,48.35,31.369,48.134L7.035,23.8C6.82,23.585,6.699,23.292,6.699,22.988C6.699,22.683,6.82,22.39,7.035,22.175L8.382,20.828C8.824,20.386,9.708,20.338,10.592,20.743C12.011,21.395,13.598,21.597,15.137,21.321C16.676,21.045,18.093,20.305,19.199,19.199C20.305,18.094,21.045,16.676,21.321,15.137C21.597,13.598,21.395,12.012,20.742,10.591C20.337,9.71,20.385,8.825,20.828,8.383Z"/>
</g>
 </g>
</svg>
