<svg width="210" height="210" viewBox="0 0 210 210" fill="none" xmlns="http://www.w3.org/2000/svg">
<path d="M21.8334 124C21.1934 123.44 20.6734 122.78 20.2734 122.02C19.9134 121.26 19.7334 120.4 19.7334 119.44C19.7334 118.64 19.9134 117.86 20.2734 117.1C20.6734 116.3 21.1534 115.56 21.7134 114.88L32.0334 102.76H20.9934C20.7534 102.32 20.5134 101.76 20.2734 101.08C20.0734 100.4 19.9734 99.66 19.9734 98.86C19.9734 97.46 20.2734 96.46 20.8734 95.86C21.5134 95.22 22.3534 94.9 23.3934 94.9H42.2934C42.9334 95.46 43.4334 96.12 43.7934 96.88C44.1934 97.64 44.3934 98.5 44.3934 99.46C44.3934 100.26 44.1934 101.06 43.7934 101.86C43.4334 102.62 42.9734 103.34 42.4134 104.02L32.3334 116.14H44.0934C44.3334 116.58 44.5534 117.14 44.7534 117.82C44.9934 118.5 45.1134 119.24 45.1134 120.04C45.1134 121.44 44.7934 122.46 44.1534 123.1C43.5534 123.7 42.7334 124 41.6934 124H21.8334ZM49.4601 86.74C49.4601 85.22 49.9601 83.94 50.9601 82.9C52.0001 81.86 53.3601 81.34 55.0401 81.34C56.7201 81.34 58.0601 81.86 59.0601 82.9C60.1001 83.94 60.6201 85.22 60.6201 86.74C60.6201 88.26 60.1001 89.54 59.0601 90.58C58.0601 91.62 56.7201 92.14 55.0401 92.14C53.3601 92.14 52.0001 91.62 50.9601 90.58C49.9601 89.54 49.4601 88.26 49.4601 86.74ZM60.1401 123.94C59.7001 124.02 59.0401 124.12 58.1601 124.24C57.3201 124.4 56.4601 124.48 55.5801 124.48C54.7001 124.48 53.9001 124.42 53.1801 124.3C52.5001 124.18 51.9201 123.94 51.4401 123.58C50.9601 123.22 50.5801 122.74 50.3001 122.14C50.0601 121.5 49.9401 120.68 49.9401 119.68V95.26C50.3801 95.18 51.0201 95.08 51.8601 94.96C52.7401 94.8 53.6201 94.72 54.5001 94.72C55.3801 94.72 56.1601 94.78 56.8401 94.9C57.5601 95.02 58.1601 95.26 58.6401 95.62C59.1201 95.98 59.4801 96.48 59.7201 97.12C60.0001 97.72 60.1401 98.52 60.1401 99.52V123.94ZM80.0137 93.94C82.4137 93.94 84.6337 94.26 86.6737 94.9C88.7537 95.5 90.5337 96.44 92.0137 97.72C93.4937 99 94.6537 100.62 95.4937 102.58C96.3337 104.5 96.7537 106.8 96.7537 109.48C96.7537 112.04 96.3937 114.28 95.6737 116.2C94.9537 118.12 93.9337 119.74 92.6137 121.06C91.2937 122.34 89.6937 123.3 87.8137 123.94C85.9737 124.58 83.9137 124.9 81.6337 124.9C79.9137 124.9 78.3137 124.64 76.8337 124.12V134.08C76.4337 134.2 75.7937 134.32 74.9137 134.44C74.0337 134.6 73.1337 134.68 72.2137 134.68C71.3337 134.68 70.5337 134.62 69.8137 134.5C69.1337 134.38 68.5537 134.14 68.0737 133.78C67.5937 133.42 67.2337 132.92 66.9937 132.28C66.7537 131.68 66.6337 130.88 66.6337 129.88V101.08C66.6337 100 66.8537 99.12 67.2937 98.44C67.7737 97.76 68.4137 97.14 69.2137 96.58C70.4537 95.78 71.9937 95.14 73.8337 94.66C75.6737 94.18 77.7337 93.94 80.0137 93.94ZM80.1337 116.86C84.2537 116.86 86.3137 114.4 86.3137 109.48C86.3137 106.92 85.7937 105.02 84.7537 103.78C83.7537 102.54 82.2937 101.92 80.3737 101.92C79.6137 101.92 78.9337 102.02 78.3337 102.22C77.7337 102.38 77.2137 102.58 76.7737 102.82V116.02C77.2537 116.26 77.7737 116.46 78.3337 116.62C78.8937 116.78 79.4937 116.86 80.1337 116.86ZM115.111 93.94C117.511 93.94 119.731 94.26 121.771 94.9C123.851 95.5 125.631 96.44 127.111 97.72C128.591 99 129.751 100.62 130.591 102.58C131.431 104.5 131.851 106.8 131.851 109.48C131.851 112.04 131.491 114.28 130.771 116.2C130.051 118.12 129.031 119.74 127.711 121.06C126.391 122.34 124.791 123.3 122.911 123.94C121.071 124.58 119.011 124.9 116.731 124.9C115.011 124.9 113.411 124.64 111.931 124.12V134.08C111.531 134.2 110.891 134.32 110.011 134.44C109.131 134.6 108.231 134.68 107.311 134.68C106.431 134.68 105.631 134.62 104.911 134.5C104.231 134.38 103.651 134.14 103.171 133.78C102.691 133.42 102.331 132.92 102.091 132.28C101.851 131.68 101.731 130.88 101.731 129.88V101.08C101.731 100 101.951 99.12 102.391 98.44C102.871 97.76 103.511 97.14 104.311 96.58C105.551 95.78 107.091 95.14 108.931 94.66C110.771 94.18 112.831 93.94 115.111 93.94ZM115.231 116.86C119.351 116.86 121.411 114.4 121.411 109.48C121.411 106.92 120.891 105.02 119.851 103.78C118.851 102.54 117.391 101.92 115.471 101.92C114.711 101.92 114.031 102.02 113.431 102.22C112.831 102.38 112.311 102.58 111.871 102.82V116.02C112.351 116.26 112.871 116.46 113.431 116.62C113.991 116.78 114.591 116.86 115.231 116.86ZM152.249 124.96C149.889 124.96 147.689 124.64 145.649 124C143.649 123.32 141.889 122.32 140.369 121C138.889 119.68 137.709 118.02 136.829 116.02C135.989 114.02 135.569 111.68 135.569 109C135.569 106.36 135.989 104.1 136.829 102.22C137.709 100.3 138.849 98.74 140.249 97.54C141.649 96.3 143.249 95.4 145.049 94.84C146.849 94.24 148.689 93.94 150.569 93.94C152.689 93.94 154.609 94.26 156.329 94.9C158.089 95.54 159.589 96.42 160.829 97.54C162.109 98.66 163.089 100 163.769 101.56C164.489 103.12 164.849 104.82 164.849 106.66C164.849 108.02 164.469 109.06 163.709 109.78C162.949 110.5 161.889 110.96 160.529 111.16L145.709 113.38C146.149 114.7 147.049 115.7 148.409 116.38C149.769 117.02 151.329 117.34 153.089 117.34C154.729 117.34 156.269 117.14 157.709 116.74C159.189 116.3 160.389 115.8 161.309 115.24C161.949 115.64 162.489 116.2 162.929 116.92C163.369 117.64 163.589 118.4 163.589 119.2C163.589 121 162.749 122.34 161.069 123.22C159.789 123.9 158.349 124.36 156.749 124.6C155.149 124.84 153.649 124.96 152.249 124.96ZM150.569 101.38C149.609 101.38 148.769 101.54 148.049 101.86C147.369 102.18 146.809 102.6 146.369 103.12C145.929 103.6 145.589 104.16 145.349 104.8C145.149 105.4 145.029 106.02 144.989 106.66L155.249 104.98C155.129 104.18 154.689 103.38 153.929 102.58C153.169 101.78 152.049 101.38 150.569 101.38ZM179.959 123.94C179.559 124.06 178.919 124.18 178.039 124.3C177.199 124.42 176.319 124.48 175.399 124.48C174.519 124.48 173.719 124.42 172.999 124.3C172.319 124.18 171.739 123.94 171.259 123.58C170.779 123.22 170.399 122.74 170.119 122.14C169.879 121.5 169.759 120.68 169.759 119.68V101.68C169.759 100.76 169.919 99.98 170.239 99.34C170.599 98.66 171.099 98.06 171.739 97.54C172.379 97.02 173.159 96.56 174.079 96.16C175.039 95.72 176.059 95.34 177.139 95.02C178.219 94.7 179.339 94.46 180.499 94.3C181.659 94.1 182.819 94 183.979 94C185.899 94 187.419 94.38 188.539 95.14C189.659 95.86 190.219 97.06 190.219 98.74C190.219 99.3 190.139 99.86 189.979 100.42C189.819 100.94 189.619 101.42 189.379 101.86C188.539 101.86 187.679 101.9 186.799 101.98C185.919 102.06 185.059 102.18 184.219 102.34C183.379 102.5 182.579 102.68 181.819 102.88C181.099 103.04 180.479 103.24 179.959 103.48V123.94Z" fill="white"/>
<path d="M153.337 73.645C147.942 65.4182 140.575 58.6711 131.908 54.0176C123.24 49.3641 113.546 46.952 103.708 47.0007C93.8699 47.0494 84.2003 49.5575 75.5789 54.2966C66.9576 59.0357 59.6581 65.8554 54.3448 74.1353L61.2726 78.581C65.8446 71.4563 72.1257 65.5881 79.5442 61.5101C86.9627 57.4322 95.2832 55.2741 103.749 55.2322C112.214 55.1903 120.555 57.2659 128.014 61.2701C135.472 65.2743 141.811 71.0801 146.454 78.1591L153.337 73.645Z" fill="#9ADB83"/>
<path d="M174.642 87.6623C171.408 71.9288 162.556 57.7663 149.608 47.6085C136.66 37.4507 120.424 31.9319 103.692 32.0006C86.9586 32.0693 70.773 37.7212 57.9164 47.985C45.0598 58.2488 36.335 72.4835 33.2413 88.2429L40.2781 89.5116C43.0641 75.3194 50.9213 62.5003 62.4993 53.2572C74.0774 44.0141 88.6533 38.9243 103.722 38.8625C118.791 38.8006 133.412 43.7705 145.072 52.9181C156.733 62.0658 164.704 74.8199 167.617 88.9887L174.642 87.6623Z" fill="#E9A3E2"/>
<path d="M35.6886 132.802C40.4704 146.562 49.6547 158.528 61.9371 167.001C74.2195 175.473 88.9754 180.022 104.109 180C119.242 179.978 133.984 175.387 146.239 166.879C158.495 158.37 167.642 146.378 172.38 132.604L165.58 130.455C161.313 142.859 153.076 153.659 142.039 161.322C131.002 168.984 117.727 173.118 104.098 173.138C90.4696 173.158 77.1811 169.062 66.1202 161.432C55.0592 153.801 46.7882 143.025 42.482 130.634L35.6886 132.802Z" fill="#E9A3E2"/>
<path d="M54.6629 138.355C60.0579 146.582 67.4246 153.329 76.0925 157.982C84.7603 162.636 94.4543 165.048 104.292 164.999C114.13 164.951 123.8 162.443 132.421 157.703C141.042 152.964 148.342 146.145 153.655 137.865L146.727 133.419C142.155 140.544 135.874 146.412 128.456 150.49C121.037 154.568 112.717 156.726 104.251 156.768C95.7861 156.81 87.4446 154.734 79.9861 150.73C72.5275 146.726 66.1887 140.92 61.5463 133.841L54.6629 138.355Z" fill="#9ADB83"/>
<path d="M75.7138 138.857C83.9051 145.76 94.1483 149.358 104.605 149.006C115.062 148.655 125.049 144.377 132.773 136.94L128.632 132.139C121.985 138.539 113.392 142.22 104.394 142.522C95.396 142.825 86.5819 139.728 79.5335 133.789L75.7138 138.857Z" fill="#07B9E0"/>
<path d="M139.464 82.9754C135.354 77.0618 129.979 72.2598 123.777 68.9619C117.575 65.6641 110.723 63.964 103.78 64.0006C96.8378 64.0372 90.002 65.8095 83.8316 69.1726C77.6613 72.5358 72.3316 77.3943 68.2781 83.351L73.2619 87.1388C76.7499 82.0131 81.336 77.8325 86.6455 74.9386C91.955 72.0446 97.8371 70.5196 103.811 70.4881C109.785 70.4566 115.681 71.9195 121.018 74.7572C126.354 77.595 130.98 81.727 134.516 86.8156L139.464 82.9754Z" fill="#07B9E0"/>
</svg>
