<svg width="40" height="40" viewBox="0 0 40 40" fill="none" xmlns="http://www.w3.org/2000/svg">
<path fill-rule="evenodd" clip-rule="evenodd" d="M20 6.25C12.4062 6.25 6.25 12.4062 6.25 20C6.25 27.5938 12.4062 33.75 20 33.75C27.5938 33.75 33.75 27.5938 33.75 20C33.75 12.4062 27.5938 6.25 20 6.25ZM24.6337 17.1337C24.8614 16.898 24.9874 16.5822 24.9846 16.2545C24.9817 15.9268 24.8503 15.6132 24.6185 15.3815C24.3868 15.1497 24.0732 15.0183 23.7455 15.0154C23.4178 15.0126 23.102 15.1386 22.8663 15.3663L20 18.2325L17.1337 15.3663C17.0184 15.2469 16.8805 15.1516 16.728 15.0861C16.5755 15.0206 16.4115 14.9861 16.2455 14.9847C16.0795 14.9832 15.9149 15.0149 15.7613 15.0777C15.6077 15.1406 15.4681 15.2334 15.3508 15.3508C15.2334 15.4681 15.1406 15.6077 15.0777 15.7613C15.0149 15.9149 14.9832 16.0795 14.9847 16.2455C14.9861 16.4115 15.0206 16.5755 15.0861 16.728C15.1516 16.8805 15.2469 17.0184 15.3663 17.1337L18.2325 20L15.3663 22.8663C15.2469 22.9816 15.1516 23.1195 15.0861 23.272C15.0206 23.4245 14.9861 23.5885 14.9847 23.7545C14.9832 23.9205 15.0149 24.0851 15.0777 24.2387C15.1406 24.3923 15.2334 24.5319 15.3508 24.6492C15.4681 24.7666 15.6077 24.8594 15.7613 24.9223C15.9149 24.9851 16.0795 25.0168 16.2455 25.0153C16.4115 25.0139 16.5755 24.9794 16.728 24.9139C16.8805 24.8484 17.0184 24.7531 17.1337 24.6337L20 21.7675L22.8663 24.6337C23.102 24.8614 23.4178 24.9874 23.7455 24.9846C24.0732 24.9817 24.3868 24.8503 24.6185 24.6185C24.8503 24.3868 24.9817 24.0732 24.9846 23.7455C24.9874 23.4178 24.8614 23.102 24.6337 22.8663L21.7675 20L24.6337 17.1337Z" fill="#C2C2C2"/>
</svg>
