<svg width="17" height="16" viewBox="0 0 17 16" fill="none" xmlns="http://www.w3.org/2000/svg">
<g clip-path="url(#clip0_1661_167)">
<path d="M1.27637 8.73891C1.19146 8.79818 1.13158 8.88686 1.10833 8.98776C1.08508 9.08866 1.10011 9.1946 1.15052 9.28505L2.17631 11.0612C2.28158 11.2432 2.52299 11.3184 2.71216 11.2258L5.84492 9.7085V15.1572H7.42793V8.94075L10.6501 7.37911L8.5764 3.78569L1.27637 8.73891ZM14.9132 2.52246C14.4866 1.78482 13.7846 1.24674 12.9615 1.02648C12.1383 0.806228 11.2614 0.921826 10.5235 1.34787C9.80322 1.76341 9.3299 2.42352 9.09799 3.15962L11.4535 7.2406C12.2062 7.4084 13.0151 7.32767 13.737 6.91213C14.4751 6.48598 15.0136 5.7841 15.2342 4.96088C15.4548 4.13766 15.3393 3.26054 14.9132 2.52246Z" fill="#FFB36C"/>
</g>
<defs>
<clipPath id="clip0_1661_167">
<rect width="15.83" height="15.83" fill="white" transform="translate(0.304688 0.118652)"/>
</clipPath>
</defs>
</svg>
