<svg width="18" height="18" viewBox="0 0 18 18" fill="none" xmlns="http://www.w3.org/2000/svg">
<path d="M14.2506 11.2499V2.99995C14.25 2.88729 14.2242 2.7762 14.1748 2.67493C14.1255 2.57365 14.054 2.48479 13.9656 2.41495C13.8784 2.34446 13.7766 2.2944 13.6676 2.26844C13.5586 2.24248 13.4451 2.24129 13.3356 2.26495L6.58556 3.76495C6.41893 3.80252 6.27012 3.89586 6.16374 4.02951C6.05736 4.16317 5.9998 4.32913 6.00057 4.49995V10.7549C5.48856 10.5132 4.91199 10.4441 4.35734 10.5578C3.80269 10.6715 3.29987 10.962 2.92432 11.3857C2.54876 11.8094 2.32072 12.3435 2.2744 12.9078C2.22808 13.4721 2.36598 14.0362 2.66741 14.5155C2.96885 14.9947 3.41756 15.3634 3.94624 15.566C4.47492 15.7687 5.05505 15.7944 5.59962 15.6395C6.14418 15.4845 6.62381 15.1571 6.96655 14.7064C7.3093 14.2558 7.49667 13.7061 7.50057 13.1399C7.50832 13.0101 7.50832 12.8798 7.50057 12.7499V5.09995L12.7506 3.93745V9.25495C12.2383 9.01309 11.6613 8.94396 11.1064 9.05795C10.5515 9.17193 10.0485 9.46288 9.67306 9.88709C9.29759 10.3113 9.06988 10.8459 9.02413 11.4105C8.97839 11.9752 9.11707 12.5395 9.41936 13.0186C9.72164 13.4977 10.1712 13.8658 10.7005 14.0677C11.2299 14.2695 11.8104 14.2941 12.355 14.1379C12.8995 13.9817 13.3787 13.653 13.7205 13.2012C14.0623 12.7494 14.2483 12.199 14.2506 11.6324C14.2577 11.505 14.2577 11.3773 14.2506 11.2499Z" fill="#3D97F2"/>
</svg>
