<svg width="43" height="43" viewBox="0 0 43 43" fill="none" xmlns="http://www.w3.org/2000/svg">
<path d="M33.05 8.3H29.75V6.65C29.75 6.21239 29.5762 5.79271 29.2667 5.48327C28.9573 5.17384 28.5376 5 28.1 5C27.6624 5 27.2427 5.17384 26.9333 5.48327C26.6238 5.79271 26.45 6.21239 26.45 6.65V8.3H16.55V6.65C16.55 6.21239 16.3762 5.79271 16.0667 5.48327C15.7573 5.17384 15.3376 5 14.9 5C14.4624 5 14.0427 5.17384 13.7333 5.48327C13.4238 5.79271 13.25 6.21239 13.25 6.65V8.3H9.95C8.63718 8.3 7.37813 8.82152 6.44982 9.74982C5.52152 10.6781 5 11.9372 5 13.25V33.05C5 34.3628 5.52152 35.6219 6.44982 36.5502C7.37813 37.4785 8.63718 38 9.95 38H33.05C34.3628 38 35.6219 37.4785 36.5502 36.5502C37.4785 35.6219 38 34.3628 38 33.05V13.25C38 11.9372 37.4785 10.6781 36.5502 9.74982C35.6219 8.82152 34.3628 8.3 33.05 8.3V8.3ZM34.7 33.05C34.7 33.4876 34.5262 33.9073 34.2167 34.2167C33.9073 34.5262 33.4876 34.7 33.05 34.7H9.95C9.51239 34.7 9.09271 34.5262 8.78327 34.2167C8.47384 33.9073 8.3 33.4876 8.3 33.05V21.5H34.7V33.05ZM34.7 18.2H8.3V13.25C8.3 12.8124 8.47384 12.3927 8.78327 12.0833C9.09271 11.7738 9.51239 11.6 9.95 11.6H13.25V13.25C13.25 13.6876 13.4238 14.1073 13.7333 14.4167C14.0427 14.7262 14.4624 14.9 14.9 14.9C15.3376 14.9 15.7573 14.7262 16.0667 14.4167C16.3762 14.1073 16.55 13.6876 16.55 13.25V11.6H26.45V13.25C26.45 13.6876 26.6238 14.1073 26.9333 14.4167C27.2427 14.7262 27.6624 14.9 28.1 14.9C28.5376 14.9 28.9573 14.7262 29.2667 14.4167C29.5762 14.1073 29.75 13.6876 29.75 13.25V11.6H33.05C33.4876 11.6 33.9073 11.7738 34.2167 12.0833C34.5262 12.3927 34.7 12.8124 34.7 13.25V18.2Z" fill="white"/>
</svg>
