<svg width="19" height="19" viewBox="0 0 19 19" fill="none" xmlns="http://www.w3.org/2000/svg">
<path d="M5.82194 2.65339C6.46981 2.16272 7.26073 1.89808 8.07344 1.90004C8.30144 1.90004 8.48289 2.01879 8.58834 2.10049C8.70614 2.19359 8.81634 2.31234 8.91514 2.43109C8.98519 2.51617 9.02348 2.62297 9.02344 2.73319V6.17504H7.99269C7.88064 5.85811 7.66015 5.591 7.37021 5.42091C7.08026 5.25082 6.73952 5.18871 6.40821 5.24556C6.0769 5.3024 5.77636 5.47454 5.55969 5.73155C5.34302 5.98855 5.22418 6.31388 5.22418 6.65004C5.22418 6.98619 5.34302 7.31152 5.55969 7.56852C5.77636 7.82553 6.0769 7.99767 6.40821 8.05451C6.73952 8.11136 7.08026 8.04925 7.37021 7.87916C7.66015 7.70907 7.88064 7.44196 7.99269 7.12504H9.02344V16.0693C9.02348 16.1396 9.00791 16.2091 8.97785 16.2727C8.94778 16.3362 8.90398 16.3923 8.84959 16.4369C8.41069 16.796 7.82359 17.1 7.12344 17.1C5.99674 17.1 5.15789 16.5319 4.61544 15.8527C4.22571 15.3687 3.95878 14.7977 3.83739 14.1883C3.46829 14.0899 3.12608 13.9097 2.83609 13.661C2.31169 13.2117 1.89844 12.483 1.89844 11.4C1.89844 10.8709 1.93359 10.393 2.01244 9.97504H4.98594C5.59014 9.97504 6.08794 10.4263 6.16394 11.0096C5.84801 11.1239 5.58264 11.3462 5.41469 11.6372C5.24674 11.9282 5.187 12.2691 5.24603 12.5999C5.30505 12.9306 5.47905 13.2299 5.73729 13.4448C5.99553 13.6598 6.32141 13.7765 6.65738 13.7745C6.99335 13.7725 7.31781 13.6519 7.57346 13.4339C7.82911 13.2159 7.99952 12.9145 8.05459 12.5831C8.10966 12.2517 8.04585 11.9114 7.87443 11.6225C7.70301 11.3335 7.43501 11.1144 7.11774 11.0039C7.0777 10.4659 6.83571 9.96296 6.44033 9.59594C6.04495 9.22893 5.52541 9.02499 4.98594 9.02504H2.31739C2.46274 8.74194 2.65749 8.50254 2.91114 8.33249C2.9753 8.29001 3.04263 8.25253 3.11254 8.22039C2.84274 7.42999 2.91304 6.50469 3.17334 5.77794C3.33959 5.31054 3.60369 4.86879 3.96659 4.57429C4.20599 4.37954 4.49099 4.25129 4.80259 4.22659C4.93939 3.57773 5.32414 3.04099 5.82289 2.65339H5.82194ZM9.97344 13.775H10.6859C11.2528 13.775 11.7965 13.5498 12.1974 13.149C12.5982 12.7481 12.8234 12.2044 12.8234 11.6375V9.89429C13.1404 9.78224 13.4075 9.56175 13.5776 9.27181C13.7476 8.98186 13.8098 8.64112 13.7529 8.30981C13.6961 7.9785 13.5239 7.67795 13.2669 7.46129C13.0099 7.24462 12.6846 7.12578 12.3484 7.12578C12.0123 7.12578 11.687 7.24462 11.4299 7.46129C11.1729 7.67795 11.0008 7.9785 10.944 8.30981C10.8871 8.64112 10.9492 8.98186 11.1193 9.27181C11.2894 9.56175 11.5565 9.78224 11.8734 9.89429V11.6375C11.8734 12.293 11.3414 12.825 10.6859 12.825H9.97344V2.73319C9.9734 2.62297 10.0117 2.51617 10.0817 2.43109C10.1796 2.31234 10.2907 2.19359 10.4085 2.10049C10.513 2.01879 10.6945 1.90004 10.9234 1.90004C11.7361 1.89808 12.5271 2.16272 13.1749 2.65339C13.6737 3.04099 14.0584 3.57773 14.1943 4.22659C14.5059 4.25033 14.7909 4.37954 15.0303 4.57429C15.3932 4.86879 15.6573 5.31054 15.8235 5.77794C16.0838 6.50469 16.1541 7.43094 15.8843 8.21944C15.9527 8.25174 16.0202 8.28974 16.0857 8.33344C16.347 8.50729 16.5455 8.75619 16.6918 9.04974C16.9797 9.62449 17.0984 10.4263 17.0984 11.4C17.0984 12.484 16.6852 13.2117 16.1608 13.661C15.8708 13.9097 15.5286 14.0899 15.1595 14.1883C15.0645 14.7184 14.7985 15.3321 14.3814 15.8527C13.8399 16.5319 13.0001 17.1 11.8734 17.1C11.1742 17.1 10.5862 16.796 10.1482 16.4369C10.0937 16.3924 10.0497 16.3364 10.0195 16.2728C9.98922 16.2092 9.97351 16.1397 9.97344 16.0693V13.775ZM6.64844 6.17504C6.52246 6.17504 6.40164 6.22508 6.31256 6.31416C6.22348 6.40324 6.17344 6.52406 6.17344 6.65004C6.17344 6.77601 6.22348 6.89683 6.31256 6.98591C6.40164 7.07499 6.52246 7.12504 6.64844 7.12504C6.77442 7.12504 6.89523 7.07499 6.98431 6.98591C7.07339 6.89683 7.12344 6.77601 7.12344 6.65004C7.12344 6.52406 7.07339 6.40324 6.98431 6.31416C6.89523 6.22508 6.77442 6.17504 6.64844 6.17504ZM6.64844 11.875C6.52246 11.875 6.40164 11.9251 6.31256 12.0142C6.22348 12.1032 6.17344 12.2241 6.17344 12.35C6.17344 12.476 6.22348 12.5968 6.31256 12.6859C6.40164 12.775 6.52246 12.825 6.64844 12.825C6.77442 12.825 6.89523 12.775 6.98431 12.6859C7.07339 12.5968 7.12344 12.476 7.12344 12.35C7.12344 12.2241 7.07339 12.1032 6.98431 12.0142C6.89523 11.9251 6.77442 11.875 6.64844 11.875ZM12.3484 9.02504C12.4744 9.02504 12.5952 8.97499 12.6843 8.88591C12.7734 8.79683 12.8234 8.67601 12.8234 8.55004C12.8234 8.42406 12.7734 8.30324 12.6843 8.21416C12.5952 8.12508 12.4744 8.07504 12.3484 8.07504C12.2225 8.07504 12.1016 8.12508 12.0126 8.21416C11.9235 8.30324 11.8734 8.42406 11.8734 8.55004C11.8734 8.67601 11.9235 8.79683 12.0126 8.88591C12.1016 8.97499 12.2225 9.02504 12.3484 9.02504Z" fill="#8CC899"/>
</svg>
