<svg width="43" height="43" viewBox="0 0 43 43" fill="none" xmlns="http://www.w3.org/2000/svg">
<path d="M23.0818 11.5045L20.8828 11.5C15.8669 11.488 11.5125 15.5635 11.478 20.4999V26.1848C11.478 27.3697 11.328 28.5262 10.6815 29.5117L10.251 30.1687C9.59554 31.1647 10.3005 32.4997 11.478 32.4997H32.5226C33.7001 32.4997 34.4036 31.1647 33.7496 30.1687L33.3191 29.5117C32.6741 28.5262 32.5226 27.3682 32.5226 26.1833V20.5014C32.4626 15.5635 28.0977 11.5165 23.0818 11.5045V11.5045Z" stroke="white" stroke-width="3" stroke-linecap="round" stroke-linejoin="round"/>
<path d="M26.5003 32.5C26.5003 33.6935 26.0262 34.838 25.1823 35.6819C24.3384 36.5258 23.1939 36.9999 22.0004 36.9999C20.807 36.9999 19.6624 36.5258 18.8185 35.6819C17.9746 34.838 17.5005 33.6935 17.5005 32.5" stroke="white" stroke-width="3" stroke-linecap="round" stroke-linejoin="round"/>
<path d="M22.0004 7C22.7961 7 23.5591 7.31606 24.1217 7.87866C24.6843 8.44126 25.0004 9.20431 25.0004 9.99995V11.4999H19.0005V9.99995C19.0005 9.20431 19.3166 8.44126 19.8792 7.87866C20.4418 7.31606 21.2048 7 22.0004 7Z" stroke="white" stroke-width="3" stroke-linecap="round" stroke-linejoin="round"/>
</svg>
