<svg width="43" height="43" viewBox="0 0 43 43" fill="none" xmlns="http://www.w3.org/2000/svg">
<path d="M17.8857 5C21.038 5 24.0612 6.25224 26.2902 8.48124C28.5192 10.7102 29.7714 13.7334 29.7714 16.8857C29.7714 19.8297 28.6926 22.536 26.9189 24.6206L27.4126 25.1143H28.8571L38 34.2571L35.2571 37L26.1143 27.8571V26.4126L25.6206 25.9189C23.4639 27.7598 20.7213 28.7713 17.8857 28.7714C14.7334 28.7714 11.7102 27.5192 9.48124 25.2902C7.25224 23.0612 6 20.038 6 16.8857C6 13.7334 7.25224 10.7102 9.48124 8.48124C11.7102 6.25224 14.7334 5 17.8857 5ZM17.8857 8.65714C13.3143 8.65714 9.65714 12.3143 9.65714 16.8857C9.65714 21.4571 13.3143 25.1143 17.8857 25.1143C22.4571 25.1143 26.1143 21.4571 26.1143 16.8857C26.1143 12.3143 22.4571 8.65714 17.8857 8.65714Z" fill="white"/>
</svg>
