<svg width="48" height="48" viewBox="0 0 48 48" fill="none" xmlns="http://www.w3.org/2000/svg">
<path d="M16.3294 37.2407C12.7398 36.8953 10 33.8792 10 30.2729L10 18.1878C10 14.6241 12.6774 11.6292 16.2189 11.2315L37.2189 8.87362C41.3682 8.40774 45 11.6546 45 15.8299V32.294C45 36.4249 41.4414 39.6575 37.3294 39.2618L16.3294 37.2407Z" fill="#6ACDED"/>
<rect x="26.5278" y="30.4561" width="13.4737" height="12.6389" rx="2" transform="rotate(-90 26.5278 30.4561)" fill="#5F5F5F"/>
<rect x="14.8613" y="28.2106" width="8.98247" height="5.83333" rx="2" transform="rotate(-90 14.8613 28.2106)" fill="#5F5F5F"/>
<rect x="1" y="14" width="8" height="19" rx="4" fill="#6ACDED"/>
<rect x="7" y="21" width="12" height="5" rx="2.5" fill="#34B3DC"/>
</svg>
