<svg width="43" height="43" viewBox="0 0 43 43" fill="none" xmlns="http://www.w3.org/2000/svg">
<path d="M41 21.5C41 32.2696 32.2696 41 21.5 41C10.7304 41 2 32.2696 2 21.5C2 10.7304 10.7304 2 21.5 2C32.2696 2 41 10.7304 41 21.5ZM4.74657 21.5C4.74657 30.7527 12.2473 38.2534 21.5 38.2534C30.7527 38.2534 38.2534 30.7527 38.2534 21.5C38.2534 12.2473 30.7527 4.74657 21.5 4.74657C12.2473 4.74657 4.74657 12.2473 4.74657 21.5Z" fill="white"/>
<path d="M35 21.5C35 28.9558 28.9558 35 21.5 35C14.0442 35 8 28.9558 8 21.5C8 14.0442 14.0442 8 21.5 8C28.9558 8 35 14.0442 35 21.5ZM10.453 21.5C10.453 27.6011 15.3989 32.547 21.5 32.547C27.6011 32.547 32.547 27.6011 32.547 21.5C32.547 15.3989 27.6011 10.453 21.5 10.453C15.3989 10.453 10.453 15.3989 10.453 21.5Z" fill="white"/>
<path d="M29 21.5C29 25.6421 25.6421 29 21.5 29C17.3579 29 14 25.6421 14 21.5C14 17.3579 17.3579 14 21.5 14C25.6421 14 29 17.3579 29 21.5ZM16.2296 21.5C16.2296 24.4108 18.5892 26.7704 21.5 26.7704C24.4108 26.7704 26.7704 24.4108 26.7704 21.5C26.7704 18.5892 24.4108 16.2296 21.5 16.2296C18.5892 16.2296 16.2296 18.5892 16.2296 21.5Z" fill="white"/>
</svg>
