<svg width="14" height="14" viewBox="0 0 14 14" fill="none" xmlns="http://www.w3.org/2000/svg">
<path d="M10.9767 4.27658C10.9767 6.48415 9.18715 8.27374 6.97958 8.27374C4.77201 8.27374 2.98242 6.48415 2.98242 4.27658C2.98242 2.06901 4.77201 0.279419 6.97958 0.279419C9.18715 0.279419 10.9767 2.06901 10.9767 4.27658ZM5.18722 4.27658C5.18722 5.26647 5.98969 6.06894 6.97958 6.06894C7.96948 6.06894 8.77195 5.26647 8.77195 4.27658C8.77195 3.28668 7.96948 2.48421 6.97958 2.48421C5.98969 2.48421 5.18722 3.28668 5.18722 4.27658Z" fill="white"/>
<path d="M7.44889 12.9172C7.31289 13.2377 6.86061 13.2435 6.71651 12.9265L3.92421 6.78339C3.80382 6.51855 3.99744 6.21787 4.28835 6.21787L9.68681 6.21787C9.97335 6.21787 10.167 6.51031 10.055 6.77409L7.44889 12.9172Z" fill="white"/>
</svg>
